<svg xmlns="http://www.w3.org/2000/svg">
      <symbol id="icon-close-button" viewBox="0 0 32 32">
        <path
          d="M32 3.2l-3.2-3.2-12.8 12.8-12.8-12.8-3.2 3.2 12.8 12.8-12.8 12.8 3.2 3.2 12.8-12.8 12.8 12.8 3.2-3.2-12.8-12.8z">
        </path>
      </symbol>
      <symbol id="icon-information" viewBox="0 0 32 32">
        <path
          d="M16 0c-8.822 0-16 7.178-16 16s7.178 16 16 16 16-7.178 16-16c0-8.822-7.178-16-16-16zM16 29.091c-7.218 0-13.091-5.872-13.091-13.091s5.872-13.091 13.091-13.091 13.091 5.873 13.091 13.091c0 7.218-5.873 13.091-13.091 13.091z">
        </path>
        <path
          d="M16 6.788c-1.069 0-1.939 0.87-1.939 1.94s0.87 1.939 1.939 1.939 1.939-0.87 1.939-1.939c0-1.070-0.87-1.94-1.939-1.94z">
        </path>
        <path
          d="M16 13.576c-0.803 0-1.455 0.651-1.455 1.455v8.727c0 0.803 0.651 1.455 1.455 1.455s1.455-0.651 1.455-1.455v-8.727c0-0.803-0.651-1.455-1.455-1.455z">
        </path>
      </symbol>
      <symbol id="icon-lupe" viewBox="0 0 32 32">
        <path
          d="M31.759 29.862l-8.687-8.685c1.871-2.241 3-5.12 3-8.261 0-7.121-5.793-12.915-12.915-12.915s-12.915 5.794-12.915 12.915 5.793 12.915 12.915 12.915c2.894 0 5.559-0.968 7.714-2.582l8.751 8.751 2.137-2.138zM3.263 12.915c0-5.455 4.438-9.893 9.893-9.893s9.893 4.438 9.893 9.893-4.438 9.893-9.893 9.893-9.893-4.438-9.893-9.893z">
        </path>
      </symbol>
      <symbol id="icon-account" viewBox="0 0 32 32">
        <path
          d="M25.98 1.525h-24.011c-1.086 0-1.969 0.884-1.969 1.969v20.009c0 1.086 0.883 1.969 1.969 1.969h15.726c0.259 0 0.469-0.21 0.469-0.469s-0.21-0.469-0.469-0.469h-1.751v-3.033c0-0.798-0.476-1.511-1.212-1.818l-2.463-1.026c-0.199-0.083-0.327-0.275-0.327-0.491v-0.732c0.631-0.642 1-1.516 1-2.436v-2.001c0-1.638-1.557-2.97-3.47-2.97s-3.47 1.332-3.47 2.97v2.001c0 0.92 0.369 1.794 1 2.436v0.732c0 0.215-0.128 0.408-0.327 0.491l-2.463 1.026c-0.736 0.307-1.212 1.020-1.212 1.818v3.033h-1.032c-0.569 0-1.032-0.463-1.032-1.032v-16.039h26.074v7.785c0 0.259 0.21 0.469 0.469 0.469s0.469-0.21 0.469-0.469v-11.755c0-1.086-0.883-1.969-1.969-1.969zM3.939 21.502c0-0.418 0.249-0.792 0.635-0.953l2.463-1.026c0.549-0.229 0.904-0.761 0.904-1.356v-0.102c0.172 0.011 0.344-0.073 0.436-0.232 0.13-0.224 0.053-0.511-0.171-0.641-0.781-0.452-1.266-1.293-1.266-2.193v-2.001c0-1.121 1.136-2.032 2.533-2.032s2.533 0.912 2.533 2.032v2.001c0 0.901-0.485 1.742-1.267 2.194-0.224 0.13-0.301 0.416-0.171 0.64 0.087 0.15 0.244 0.234 0.406 0.234 0.010 0 0.021-0.001 0.031-0.002v0.102c0 0.595 0.355 1.127 0.904 1.356l2.463 1.026c0.386 0.161 0.635 0.535 0.635 0.953v3.033h-11.068v-3.033zM27.012 6.527h-26.074v-3.033c0-0.569 0.463-1.032 1.032-1.032h24.011c0.569 0 1.032 0.463 1.032 1.032v3.033z">
        </path>
        <path
          d="M2.475 4.026h-0.005c-0.259 0-0.466 0.21-0.466 0.469s0.212 0.469 0.471 0.469c0.259 0 0.469-0.21 0.469-0.469s-0.21-0.469-0.469-0.469z">
        </path>
        <path
          d="M5.471 4.026h-0.005c-0.259 0-0.466 0.21-0.466 0.469s0.212 0.469 0.471 0.469c0.259 0 0.469-0.21 0.469-0.469s-0.21-0.469-0.469-0.469z">
        </path>
        <path
          d="M3.97 4.026h-0.005c-0.259 0-0.466 0.21-0.466 0.469s0.212 0.469 0.471 0.469c0.259 0 0.469-0.21 0.469-0.469s-0.21-0.469-0.469-0.469z">
        </path>
        <path
          d="M25.48 4.026h-18.008c-0.259 0-0.469 0.21-0.469 0.469s0.21 0.469 0.469 0.469h18.008c0.259 0 0.469-0.21 0.469-0.469s-0.21-0.469-0.469-0.469z">
        </path>
        <path
          d="M31.685 18.406l-6.753-2.349c-0.1-0.035-0.208-0.035-0.308 0l-4.856 1.689c-0.244 0.085-0.374 0.352-0.289 0.597s0.352 0.374 0.597 0.289l4.702-1.636 6.262 2.178c-0.055 0.599-0.238 1.94-0.847 3.546-0.742 1.958-2.281 4.691-5.415 6.731-3.12-2.031-4.658-4.749-5.402-6.696-0.833-2.18-0.882-3.899-0.883-3.916-0.006-0.259-0.217-0.463-0.479-0.458-0.259 0.006-0.464 0.22-0.459 0.479 0.002 0.075 0.049 1.869 0.93 4.193 0.813 2.144 2.521 5.159 6.044 7.352 0.076 0.047 0.162 0.071 0.248 0.071s0.172-0.024 0.248-0.071c3.523-2.192 5.231-5.208 6.044-7.352 0.881-2.324 0.929-4.118 0.93-4.193 0.005-0.203-0.123-0.386-0.314-0.453z">
        </path>
        <path
          d="M27.826 21.050c-0.183-0.183-0.48-0.183-0.663 0l-2.898 2.898-1.724-1.724c-0.183-0.183-0.48-0.183-0.663 0s-0.183 0.48 0 0.663l2.055 2.055c0.091 0.092 0.212 0.137 0.331 0.137s0.24-0.046 0.331-0.137l3.23-3.23c0.183-0.183 0.183-0.48 0-0.663z">
        </path>
        <path
          d="M23.979 9.529h-8.004c-0.534 0-0.969 0.435-0.969 0.969v1.501c0 0.534 0.435 0.969 0.969 0.969h8.004c0.534 0 0.969-0.435 0.969-0.969v-1.501c0-0.534-0.435-0.969-0.969-0.969zM24.011 11.998c0 0.017-0.014 0.031-0.031 0.031h-8.004c-0.017 0-0.031-0.014-0.031-0.031v-1.501c0-0.017 0.014-0.031 0.031-0.031h8.004c0.017 0 0.031 0.014 0.031 0.031v1.501z">
        </path>
        <path
          d="M21.978 14.031h-6.003c-0.259 0-0.469 0.21-0.469 0.469s0.21 0.469 0.469 0.469h6.003c0.259 0 0.469-0.21 0.469-0.469s-0.21-0.469-0.469-0.469z">
        </path>
        <path
          d="M19.477 16.031h-3.502c-0.259 0-0.469 0.21-0.469 0.469s0.21 0.469 0.469 0.469h3.502c0.259 0 0.469-0.21 0.469-0.469s-0.21-0.469-0.469-0.469z">
        </path>
      </symbol>
      <symbol id="icon-computer" viewBox="0 0 32 32">
        <path
          d="M32 21.177c0-0.001-0-0.002-0-0.002v-15.529c0-1.4-1.139-2.54-2.54-2.54h-7.054l-2.968-2.968c-0.015-0.015-0.031-0.028-0.048-0.041-0.004-0.003-0.007-0.006-0.011-0.008-0.017-0.012-0.034-0.023-0.052-0.033-0.001-0.001-0.003-0.001-0.004-0.002-0.017-0.009-0.035-0.017-0.054-0.024-0.004-0.001-0.007-0.003-0.011-0.004-0.020-0.007-0.040-0.013-0.060-0.017-0.001-0-0.001-0-0.002-0-0.019-0.004-0.038-0.006-0.058-0.007-0.005-0-0.011-0.001-0.016-0.001s-0.011-0.001-0.016-0.001h-11.389c-0.259 0-0.469 0.21-0.469 0.469v2.637h-4.708c-1.4 0-2.539 1.139-2.539 2.54v15.53c0 0.001-0 0.001-0 0.002s0 0.001 0 0.002v2.069c0 1.4 1.139 2.54 2.539 2.54h1.651c0.259 0 0.469-0.21 0.469-0.469s-0.21-0.469-0.469-0.469h-1.651c-0.883 0-1.602-0.719-1.602-1.602v-1.602h30.125v1.602c0 0.883-0.719 1.602-1.602 1.602h-9.835c-0 0-0.001-0-0.001-0s-0.001 0-0.001 0h-7.246c-0 0-0.001-0-0.001-0s-0.001 0-0.001 0h-6.309c-0.259 0-0.469 0.21-0.469 0.469s0.21 0.469 0.469 0.469h5.842v3.204h-4.191c-0.259 0-0.469 0.21-0.469 0.469v2.071c0 0.259 0.21 0.469 0.469 0.469h16.567c0.259 0 0.469-0.21 0.469-0.469v-2.071c0-0.259-0.21-0.469-0.469-0.469h-4.191v-3.204h9.368c1.4 0 2.54-1.139 2.54-2.54v-2.068c0-0.001 0-0.002 0-0.002zM15.433 25.787h1.133v1.133h-1.133v-1.133zM23.815 31.062h-15.629v-1.133h15.629v1.133zM19.155 28.992h-6.31v-3.204h1.651v1.602c0 0.259 0.21 0.469 0.469 0.469h2.071c0.259 0 0.469-0.21 0.469-0.469v-1.602h1.651v3.204zM19.575 1.601l3.577 3.577h-3.577v-3.577zM7.248 20.708h-4.24v-14.594h4.24v14.594zM0.938 5.646c0-0.883 0.719-1.602 1.602-1.602h4.708v1.133h-4.708c-0.259 0-0.469 0.21-0.469 0.469v15.063h-1.133v-15.063zM8.185 20.708v-19.771h10.452v4.708c0 0.259 0.21 0.469 0.469 0.469h4.708v14.594h-15.629zM28.992 20.708h-4.24v-14.594h4.24v14.594zM29.929 20.708v-15.063c0-0.259-0.21-0.469-0.469-0.469h-4.983l-1.133-1.133h6.117c0.883 0 1.602 0.719 1.602 1.602v15.063h-1.133z">
        </path>
        <path
          d="M17.035 23.717c0.259 0 0.469-0.21 0.469-0.469s-0.21-0.469-0.469-0.469h-2.071c-0.259 0-0.469 0.21-0.469 0.469s0.21 0.469 0.469 0.469h2.071z">
        </path>
        <path
          d="M9.788 6.115h3.106c0.259 0 0.469-0.21 0.469-0.469v-3.106c0-0.259-0.21-0.469-0.469-0.469h-3.106c-0.259 0-0.469 0.21-0.469 0.469v3.106c0 0.259 0.21 0.469 0.469 0.469zM10.256 3.009h2.169v2.169h-2.169v-2.169z">
        </path>
        <path
          d="M22.212 8.283h-12.425c-0.259 0-0.469 0.21-0.469 0.469v2.071c0 0.259 0.21 0.469 0.469 0.469h12.425c0.259 0 0.469-0.21 0.469-0.469v-2.071c0-0.259-0.21-0.469-0.469-0.469zM21.744 10.354h-11.487v-1.133h11.487v1.133z">
        </path>
        <path
          d="M22.212 12.425h-12.425c-0.259 0-0.469 0.21-0.469 0.469v2.071c0 0.259 0.21 0.469 0.469 0.469h12.425c0.259 0 0.469-0.21 0.469-0.469v-2.071c0-0.259-0.21-0.469-0.469-0.469zM21.744 14.496h-11.487v-1.133h11.487v1.133z">
        </path>
        <path
          d="M20.142 16.567h-8.283c-0.259 0-0.469 0.21-0.469 0.469v2.071c0 0.259 0.21 0.469 0.469 0.469h8.283c0.259 0 0.469-0.21 0.469-0.469v-2.071c0-0.259-0.21-0.469-0.469-0.469zM19.673 18.638h-7.346v-1.133h7.346v1.133z">
        </path>
      </symbol>
      <symbol id="icon-download" viewBox="0 0 32 32">
        <path
          d="M27.555 27.735h-23.101c-0.706 0-1.279 0.578-1.279 1.279v1.707c0 0.706 0.578 1.279 1.279 1.279h23.092c0.706 0 1.279-0.578 1.279-1.279v-1.707c0.014-0.71-0.564-1.279-1.27-1.279z">
        </path>
        <path
          d="M15.11 25.445c0.25 0.25 0.578 0.378 0.901 0.378 0.328 0 0.655-0.127 0.901-0.378l8.749-8.749c0.496-0.496 0.496-1.306 0-1.812l-1.211-1.211c-0.496-0.496-1.306-0.496-1.812 0l-4.497 4.502v-16.897c0-0.706-0.578-1.279-1.279-1.279h-1.707c-0.706 0-1.279 0.569-1.279 1.279v16.901l-4.502-4.502c-0.496-0.496-1.311-0.496-1.812 0l-1.211 1.211c-0.496 0.496-0.496 1.311 0 1.812l8.758 8.744z">
        </path>
      </symbol>
      <symbol id="icon-facebook" viewBox="0 0 32 32">
        <path
          d="M29.361 0h-22.447c-0.277 0-0.501 0.224-0.501 0.501s0.224 0.501 0.501 0.501h22.447c0.903 0 1.637 0.734 1.637 1.637v26.722c0 0.902-0.734 1.637-1.637 1.637h-9.119v-6.447c0-0.277-0.224-0.501-0.501-0.501s-0.501 0.224-0.501 0.501v6.447h-3.274v-11.791c0-0.277-0.224-0.501-0.501-0.501h-2.171v-3.274h2.171c0.277 0 0.501-0.224 0.501-0.501v-3.207c0-3.26 2.652-5.912 5.912-5.912h3.775v3.273h-3.775c-1.455 0-2.639 1.184-2.639 2.639v3.207c0 0.277 0.224 0.501 0.501 0.501h5.912v3.273h-5.912c-0.277 0-0.501 0.224-0.501 0.501v3.207c0 0.277 0.224 0.501 0.501 0.501s0.501-0.224 0.501-0.501v-2.706h5.912c0.277 0 0.501-0.224 0.501-0.501v-4.276c0-0.277-0.224-0.501-0.501-0.501h-5.912v-2.706c0-0.902 0.734-1.637 1.637-1.637h4.276c0.277 0 0.501-0.224 0.501-0.501v-4.276c0-0.277-0.224-0.501-0.501-0.501h-4.276c-3.813 0-6.914 3.102-6.914 6.914v2.706h-2.171c-0.277 0-0.501 0.224-0.501 0.501v4.276c0 0.277 0.224 0.501 0.501 0.501h2.171v11.29h-12.326c-0.903 0-1.637-0.734-1.637-1.637v-26.722c0-0.902 0.734-1.637 1.637-1.637h2.138c0.277 0 0.501-0.224 0.501-0.501s-0.224-0.501-0.501-0.501h-2.138c-1.455 0-2.639 1.184-2.639 2.639v26.722c0 1.455 1.184 2.639 2.639 2.639h26.722c1.455 0 2.639-1.184 2.639-2.639v-26.722c0-1.455-1.184-2.639-2.639-2.639z">
        </path>
      </symbol>
      <symbol id="icon-journalist" viewBox="0 0 32 32">
        <path
          d="M31.727 6.047l-3.14-1.446c-0.061-0.028-0.129-0.042-0.197-0.043h-1.756c-0.259 0-0.47 0.21-0.47 0.47s0.21 0.47 0.47 0.47h1.287v1.953h-3.331c-0.148-0.783-0.407-1.455-0.817-1.953h0.982c0.259 0 0.47-0.21 0.47-0.47s-0.21-0.47-0.47-0.47h-3.379v-2.577c-0-1.092-0.887-1.98-1.978-1.98-0.905 0-1.669 0.611-1.903 1.443-0.317-0.217-0.701-0.344-1.113-0.344-0.861 0-1.594 0.554-1.866 1.323-0.324-0.233-0.722-0.371-1.151-0.371-0.992 0-1.816 0.735-1.956 1.688-0.307-0.196-0.67-0.31-1.060-0.31-0.786 0-1.466 0.461-1.785 1.127h-7.156c-0.777 0-1.409 0.632-1.409 1.41v1.013c0 0.777 0.632 1.41 1.409 1.41h6.963v4.111c0 0.152 0.024 3.746 2.127 6.256 0.385 0.46 0.597 1.041 0.597 1.637v1.010h-0.079c-0.259 0-0.47 0.21-0.47 0.47v3.563h-0.243c-0.259 0-0.47 0.21-0.47 0.47v5.625c0 0.259 0.21 0.47 0.47 0.47h2.256c0.259 0 0.47-0.21 0.47-0.47s-0.21-0.47-0.47-0.47h-1.786v-4.686h6.97c0.259 0 0.47-0.21 0.47-0.47s-0.21-0.47-0.47-0.47h-6.257v-3.093h9.5v3.093h-1.364c-0.259 0-0.47 0.21-0.47 0.47s0.21 0.47 0.47 0.47h2.077v4.686h-7.26c-0.259 0-0.47 0.21-0.47 0.47s0.21 0.47 0.47 0.47h7.73c0.259 0 0.47-0.21 0.47-0.47v-5.625c0-0.259-0.21-0.47-0.47-0.47h-0.243v-3.563c0-0.259-0.21-0.47-0.47-0.47h-0.079v-1.026c0-0.367 0.13-0.721 0.365-0.998 0.774-0.911 2.125-2.758 2.486-4.886 0.338-1.993 0.635-4.246 0.485-6.102h3.678c0.068 0 0.135-0.016 0.197-0.043l3.14-1.446c0.166-0.077 0.273-0.243 0.273-0.427s-0.107-0.35-0.273-0.426zM2.764 7.45h-1.355c-0.259 0-0.47-0.211-0.47-0.47v-1.013c0-0.259 0.211-0.47 0.47-0.47h1.355zM4.75 7.45h-1.047v-1.953h1.047zM18.36 1.98c0-0.574 0.466-1.040 1.038-1.040s1.038 0.467 1.038 1.040v2.577h-2.077v-2.577zM15.344 3.078c0-0.574 0.466-1.040 1.038-1.040s1.038 0.467 1.038 1.040v1.479h-0.764c-0.699 0-1.268 0.583-1.268 1.3 0 1.256 0.852 2.355 2.033 2.635v0.992c0 0.574-0.466 1.040-1.038 1.040s-1.038-0.467-1.038-1.040zM20.433 9.138c-0.042 0.535-0.489 0.958-1.034 0.958-0.573 0-1.038-0.467-1.038-1.040v-0.361zM12.328 4.030c0-0.573 0.466-1.039 1.038-1.039s1.038 0.466 1.038 1.039v4.483c0 0.573-0.466 1.039-1.038 1.039s-1.038-0.466-1.038-1.039zM9.311 5.41c0-0.574 0.466-1.040 1.038-1.040s1.038 0.467 1.038 1.040v2.42c0 0.574-0.466 1.041-1.038 1.041s-1.038-0.467-1.038-1.040zM5.689 5.496h2.683v1.953h-2.683zM23.302 14.334c-0.323 1.907-1.565 3.598-2.276 4.436-0.379 0.447-0.588 1.017-0.588 1.606v1.026h-8.402v-1.010c0-0.816-0.29-1.611-0.816-2.24-1.88-2.244-1.908-5.619-1.908-5.653v-2.987c0.302 0.187 0.658 0.296 1.038 0.296 0.467 0 0.897-0.163 1.236-0.436 0.321 0.661 0.998 1.118 1.781 1.118 0.427 0 0.822-0.136 1.145-0.367 0.267 0.778 1.004 1.34 1.871 1.34 0.712 0 1.337-0.379 1.686-0.946 0.146 0.133 0.311 0.244 0.491 0.329-1.078 0.687-2.355 1.851-3.136 3.761-0.098 0.24 0.017 0.514 0.257 0.613 0.234 0.097 0.514-0.014 0.612-0.257 1.335-3.264 4.396-4.087 4.426-4.094 0.166-0.042 0.296-0.171 0.34-0.337l0.417-1.603c0.102-0.324-0.154-0.61-0.475-0.631l-3.328-0.712c-0.779-0.167-1.344-0.894-1.344-1.729 0-0.199 0.148-0.361 0.329-0.361h5.029c0.578 0 1.019 0.189 1.348 0.578 1.246 1.475 0.75 5.42 0.268 8.26zM28.86 7.186v-1.426l1.548 0.713z">
        </path>
        <path
          d="M13.052 23.419c-0.259 0-0.47 0.21-0.47 0.47s0.21 0.47 0.47 0.47h0.397c0.259 0 0.47-0.21 0.47-0.47s-0.21-0.47-0.47-0.47z">
        </path>
      </symbol>
      <symbol id="icon-linkedin" viewBox="0 0 32 32">
        <path
          d="M31.499 5.812c0.277 0 0.501-0.224 0.501-0.501v-2.672c0-1.455-1.184-2.639-2.639-2.639h-26.722c-1.455 0-2.639 1.184-2.639 2.639v26.722c0 1.455 1.184 2.639 2.639 2.639h26.722c1.455 0 2.639-1.184 2.639-2.639v-21.912c0-0.277-0.224-0.501-0.501-0.501s-0.501 0.224-0.501 0.501v21.912c0 0.902-0.734 1.637-1.637 1.637h-26.722c-0.902 0-1.637-0.734-1.637-1.637v-26.722c0-0.902 0.734-1.637 1.637-1.637h26.722c0.903 0 1.637 0.734 1.637 1.637v2.672c0 0.277 0.224 0.501 0.501 0.501z">
        </path>
        <path
          d="M9.587 14.931c0.277 0 0.501-0.224 0.501-0.501v-2.171c0-0.277-0.224-0.501-0.501-0.501h-4.276c-0.277 0-0.501 0.224-0.501 0.501v14.43c0 0.277 0.224 0.501 0.501 0.501h4.276c0.277 0 0.501-0.224 0.501-0.501v-10.054c0-0.277-0.224-0.501-0.501-0.501s-0.501 0.224-0.501 0.501v9.553h-3.273v-13.428h3.274v1.67c0 0.277 0.224 0.501 0.501 0.501z">
        </path>
        <path
          d="M25.503 13.13c-1.020-0.872-2.341-1.373-3.624-1.373-2.118 0-3.46 0.704-4.309 1.572v-1.071c0-0.277-0.224-0.501-0.501-0.501h-4.276c-0.277 0-0.501 0.224-0.501 0.501v14.43c0 0.277 0.224 0.501 0.501 0.501h4.276c0.277 0 0.501-0.224 0.501-0.501v-6.948c0-1.341 1.127-2.171 2.171-2.171 1.258 0 2.171 0.913 2.171 2.171v6.948c0 0.277 0.224 0.501 0.501 0.501h4.276c0.277 0 0.501-0.224 0.501-0.501v-10.154c0-1.265-0.599-2.474-1.687-3.404zM26.188 26.188h-3.273v-6.447c0-1.809-1.364-3.173-3.173-3.173-1.526 0-3.173 1.213-3.173 3.173v6.447h-3.274v-13.428h3.274v2.171c0 0.229 0.161 0.433 0.383 0.487 0.229 0.056 0.472-0.061 0.572-0.274 0.742-1.582 2.208-2.384 4.356-2.384 2.034 0 4.309 1.614 4.309 3.775v9.653z">
        </path>
        <path
          d="M7.449 4.81c-1.455 0-2.639 1.184-2.639 2.639s1.184 2.639 2.639 2.639 2.639-1.184 2.639-2.639-1.184-2.639-2.639-2.639zM7.449 9.086c-0.902 0-1.637-0.734-1.637-1.637s0.734-1.637 1.637-1.637 1.637 0.734 1.637 1.637-0.734 1.637-1.637 1.637z">
        </path>
      </symbol>
      <symbol id="icon-round-table" viewBox="0 0 32 32">
        <path
          d="M31.139 27.536c0.593-0.838 0.895-1.847 0.858-2.885-0.043-1.191-0.532-2.311-1.375-3.154l-2.091-2.091c0.431-1.583 0.557-3.214 0.375-4.853-0.029-0.257-0.26-0.442-0.518-0.414s-0.443 0.26-0.414 0.518c0.149 1.339 0.075 2.673-0.218 3.975l-0.671-0.671c-0.344-0.344-0.802-0.533-1.289-0.533-0.488 0-0.946 0.189-1.289 0.534-0.71 0.711-0.71 1.867 0 2.577l1.761 1.761c-0.492 0.799-1.080 1.543-1.751 2.216-2.931 2.931-7.141 4.136-11.153 3.24l0.672-0.672c0.344-0.344 0.533-0.802 0.533-1.288 0-0.488-0.19-0.946-0.534-1.289-0.71-0.71-1.866-0.71-2.577 0l-1.763 1.763c-0.804-0.494-1.551-1.083-2.222-1.755-0.707-0.707-1.323-1.497-1.831-2.347-0.005-0.010-0.009-0.020-0.014-0.030-0.199-0.336-0.38-0.68-0.539-1.024-0.231-0.492-0.431-1.007-0.593-1.529-0.007-0.023-0.017-0.046-0.027-0.067-0.457-1.498-0.617-3.051-0.476-4.617 0.023-0.258-0.167-0.486-0.425-0.509s-0.486 0.167-0.509 0.425c-0.147 1.619 0.007 3.226 0.454 4.78l-2.019 2.019c-0.839 0.839-1.327 1.953-1.375 3.136-0.042 1.032 0.254 2.037 0.837 2.874l-0.047 0.047c-0.353 0.353-0.547 0.821-0.547 1.319s0.194 0.967 0.547 1.319l0.869 0.869c0.364 0.364 0.841 0.546 1.319 0.546s0.955-0.182 1.319-0.546l0.042-0.042c0.796 0.563 1.738 0.862 2.706 0.862 0.288 0 0.578-0.026 0.867-0.080 0.255-0.047 0.423-0.292 0.376-0.546s-0.292-0.422-0.546-0.376c-0.957 0.177-1.926-0.018-2.727-0.536l0.987-0.987c0.242-0.242 0.409-0.539 0.49-0.863 0.692 0.481 1.653 0.414 2.269-0.203l1.214-1.214c0.001-0.001 0.001-0.001 0.002-0.002l2.022-2.022c0.345-0.345 0.907-0.345 1.252 0 0.167 0.166 0.259 0.388 0.259 0.625s-0.092 0.458-0.259 0.625l-1.25 1.25c-0.002 0.002-0.003 0.003-0.005 0.005l-2.281 2.281c-0.124 0.124-0.257 0.24-0.396 0.345-0.207 0.156-0.247 0.45-0.091 0.657 0.092 0.122 0.232 0.186 0.374 0.186 0.099 0 0.198-0.031 0.282-0.095 0.173-0.131 0.339-0.275 0.493-0.43l2.091-2.090c1.125 0.305 2.268 0.454 3.404 0.454 1.22 0 2.429-0.173 3.593-0.508l2.027 2.028c0.839 0.839 1.953 1.327 3.137 1.374 0.064 0.003 0.127 0.004 0.191 0.004 0.965 0 1.898-0.294 2.683-0.842l0.047 0.047c0.364 0.364 0.841 0.545 1.319 0.545s0.955-0.182 1.319-0.545l0.869-0.869c0.353-0.353 0.547-0.821 0.547-1.319s-0.194-0.967-0.547-1.319zM1.057 24.788c0.038-0.948 0.429-1.84 1.101-2.511l1.686-1.686c0.222 0.588 0.487 1.16 0.793 1.71l-0.931 0.93c-0.336 0.335-0.521 0.782-0.521 1.256 0 0.357 0.104 0.698 0.299 0.988-0.319 0.079-0.62 0.242-0.869 0.49l-0.982 0.982c-0.405-0.64-0.608-1.391-0.577-2.16zM5.461 28.811l-1.363 1.362c0 0-0 0-0 0l-0.342 0.342c-0.362 0.362-0.951 0.362-1.313 0l-0.869-0.869c-0.175-0.175-0.272-0.408-0.272-0.657s0.097-0.481 0.272-0.656l0.335-0.335c0.001-0.001 0.002-0.002 0.003-0.003l1.367-1.366c0.181-0.181 0.418-0.271 0.656-0.271 0.237 0 0.473 0.090 0.654 0.269l0.872 0.872c0.175 0.175 0.272 0.408 0.272 0.656s-0.096 0.481-0.272 0.657zM8.221 27.745c-0.158 0.159-0.369 0.246-0.593 0.246s-0.435-0.087-0.593-0.246l-0.905-0.905s-0.005-0.004-0.005-0.005l-0.869-0.869c-0.001-0.001-0.002-0.002-0.003-0.003l-0.882-0.882c-0.159-0.158-0.246-0.369-0.246-0.594s0.087-0.435 0.246-0.593l0.769-0.769c0.427 0.648 0.912 1.259 1.451 1.824l-0.241 0.241c-0.183 0.183-0.183 0.48 0 0.663 0.092 0.092 0.212 0.137 0.332 0.137s0.24-0.046 0.332-0.137l0.249-0.249c0.547 0.498 1.135 0.948 1.757 1.345zM25.172 18.624c0.166-0.167 0.388-0.259 0.625-0.259s0.459 0.092 0.626 0.259l3.536 3.536c1.26 1.26 1.444 3.237 0.504 4.701l-0.987-0.987c-0.247-0.247-0.547-0.41-0.863-0.489 0.206-0.295 0.318-0.646 0.318-1.014 0-0.475-0.185-0.921-0.52-1.256l-3.239-3.239c-0.345-0.345-0.345-0.907 0-1.252zM24.948 25.405l0.244 0.244c0.092 0.091 0.212 0.137 0.332 0.137s0.24-0.046 0.332-0.137c0.183-0.183 0.183-0.48-0-0.663l-0.252-0.252c0.5-0.548 0.95-1.136 1.346-1.756l0.799 0.799c0.159 0.158 0.246 0.369 0.246 0.593s-0.087 0.435-0.246 0.593l-0.907 0.907c-0.001 0.001-0.002 0.001-0.002 0.002l-0.869 0.869c-0.001 0.001-0.002 0.002-0.002 0.002l-0.883 0.883c-0.327 0.327-0.86 0.327-1.188 0l-0.775-0.775c0.645-0.423 1.257-0.906 1.826-1.448zM24.79 30.94c-0.948-0.038-1.84-0.429-2.511-1.1l-1.691-1.691c0.314-0.118 0.624-0.249 0.927-0.39 0.263-0.123 0.526-0.257 0.785-0.4l0.934 0.933c0.609 0.609 1.553 0.682 2.243 0.221 0.081 0.326 0.248 0.625 0.492 0.869l0.982 0.982c-0.64 0.405-1.392 0.608-2.16 0.577zM30.519 29.554l-0.869 0.869c-0.362 0.362-0.95 0.362-1.313 0l-1.705-1.705c-0.176-0.175-0.272-0.408-0.272-0.656s0.096-0.48 0.271-0.655l0.872-0.872c0.181-0.18 0.418-0.27 0.655-0.27s0.475 0.090 0.656 0.271l1.371 1.371c0 0 0 0 0 0l0.334 0.334c0.176 0.175 0.272 0.408 0.272 0.657s-0.097 0.481-0.272 0.656z">
        </path>
        <path
          d="M4.915 14.034c0.344 0.344 0.801 0.533 1.288 0.533 0.488 0 0.946-0.189 1.289-0.534 0.71-0.711 0.71-1.867-0-2.577l-1.769-1.769c0.458-0.745 1-1.441 1.615-2.076 0.013-0.011 0.026-0.022 0.039-0.034 0.015-0.015 0.029-0.032 0.042-0.049 0.018-0.019 0.037-0.037 0.055-0.056 0.7-0.699 1.479-1.308 2.317-1.812 0.024-0.009 0.047-0.021 0.070-0.034 0.334-0.197 0.677-0.378 1.022-0.539 0.494-0.231 1.009-0.431 1.53-0.593 0.027-0.009 0.053-0.020 0.078-0.033 2.008-0.608 4.117-0.684 6.153-0.225l-0.679 0.679c-0.344 0.344-0.534 0.802-0.534 1.288s0.19 0.945 0.534 1.289c0.71 0.71 1.866 0.71 2.577 0l1.767-1.767c0.799 0.492 1.541 1.078 2.209 1.747 0.754 0.754 1.403 1.6 1.93 2.514 0.206 0.358 0.792 1.596 1.046 2.376 0.007 0.035 0.017 0.068 0.032 0.101 0 0.001 0 0.001 0 0.002 0.094 0.311 0.281 0.278 0.428 0.278h0c0.12-0 0.239-0.046 0.331-0.137l2.222-2.222c0.839-0.839 1.327-1.953 1.374-3.137 0.041-1.032-0.254-2.037-0.837-2.874l0.047-0.047c0.352-0.352 0.546-0.821 0.546-1.319s-0.194-0.967-0.546-1.319l-0.869-0.869c-0.728-0.727-1.911-0.727-2.638 0l-0.042 0.042c-0.838-0.593-1.846-0.896-2.886-0.857-1.191 0.043-2.311 0.532-3.155 1.375l-2.083 2.083c-2.306-0.629-4.72-0.612-7.018 0.048l-2.017-2.017c-0.839-0.839-1.953-1.327-3.137-1.374-1.031-0.042-2.037 0.254-2.874 0.837l-0.047-0.047c-0.728-0.727-1.911-0.727-2.638 0l-0.869 0.869c-0.353 0.352-0.547 0.821-0.547 1.319s0.194 0.967 0.547 1.319l0.042 0.042c-0.593 0.838-0.895 1.847-0.858 2.885 0.043 1.191 0.531 2.311 1.375 3.154zM25.859 5.143c0.006 0.006 0.013 0.013 0.019 0.020l1.755 1.754c0.159 0.159 0.246 0.37 0.246 0.594s-0.087 0.435-0.246 0.594l-0.771 0.771c-0.426-0.648-0.911-1.259-1.449-1.826l0.241-0.241c0.183-0.183 0.183-0.48 0-0.663s-0.48-0.183-0.663 0l-0.248 0.248c-0.547-0.499-1.134-0.95-1.755-1.347l0.793-0.793c0.327-0.327 0.86-0.327 1.188 0zM30.945 7.209c-0.038 0.948-0.429 1.84-1.1 2.511l-1.699 1.698c-0.241-0.638-0.594-1.354-0.786-1.717l0.935-0.935c0.336-0.335 0.521-0.782 0.521-1.256 0-0.357-0.105-0.698-0.299-0.988 0.319-0.079 0.621-0.242 0.869-0.491l0.982-0.982c0.405 0.64 0.608 1.391 0.577 2.16zM28.903 1.21c0.238 0 0.475 0.091 0.656 0.271l0.869 0.869c0.175 0.175 0.272 0.408 0.272 0.656s-0.096 0.481-0.272 0.656l-0.341 0.341c-0.001 0.001-0.002 0.002-0.003 0.003l-1.361 1.361c-0.362 0.362-0.951 0.362-1.313 0l-0.869-0.869c-0.362-0.362-0.362-0.951-0-1.313l1.705-1.705c0.181-0.181 0.418-0.271 0.656-0.271zM22.165 2.041c1.261-1.26 3.238-1.444 4.702-0.504l-0.988 0.987c-0.247 0.247-0.41 0.547-0.489 0.864-0.692-0.481-1.654-0.415-2.271 0.202l-3.239 3.239c-0.345 0.345-0.906 0.345-1.252-0-0.167-0.167-0.259-0.389-0.259-0.625s0.092-0.458 0.26-0.625zM4.253 8.218c-0.159-0.158-0.246-0.369-0.246-0.593s0.087-0.435 0.246-0.593l2.665-2.664c0.327-0.327 0.86-0.327 1.187 0l0.766 0.765c-0.648 0.426-1.259 0.911-1.825 1.45l-0.237-0.237c-0.183-0.183-0.48-0.183-0.663 0s-0.183 0.48 0 0.663l0.244 0.243c-0.499 0.548-0.949 1.136-1.346 1.756zM7.21 1.055c0.948 0.038 1.84 0.429 2.512 1.1l1.684 1.684c-0.589 0.222-1.161 0.487-1.71 0.792l-0.928-0.928c-0.609-0.609-1.554-0.682-2.244-0.221-0.081-0.326-0.248-0.626-0.492-0.869l-0.982-0.982c0.641-0.405 1.392-0.608 2.16-0.577zM1.482 2.44l0.869-0.869c0.181-0.181 0.418-0.271 0.656-0.271s0.475 0.090 0.656 0.271l0.34 0.34c0.002 0.001 0.003 0.003 0.005 0.005l1.361 1.36c0.175 0.176 0.272 0.408 0.272 0.656s-0.096 0.481-0.272 0.656l-0.869 0.869c-0.362 0.362-0.951 0.362-1.313 0l-1.705-1.705c-0.176-0.175-0.272-0.408-0.272-0.656s0.096-0.481 0.272-0.656zM1.537 5.134l0.987 0.987c0.247 0.247 0.547 0.41 0.863 0.489-0.206 0.295-0.318 0.646-0.318 1.014 0 0.475 0.185 0.921 0.521 1.256l3.239 3.239c0.345 0.345 0.345 0.906-0 1.252-0.167 0.167-0.389 0.259-0.626 0.259s-0.458-0.092-0.625-0.259l-3.537-3.536c-1.26-1.26-1.444-3.237-0.504-4.7z">
        </path>
        <path
          d="M9.685 17.65l-2.301 2.039c-0.363 0.322-0.397 0.879-0.075 1.242l1.268 1.43c0.001 0.001 0.003 0.003 0.004 0.005s0.002 0.002 0.003 0.003l1.216 1.372c0.173 0.196 0.416 0.296 0.659 0.296 0.208 0 0.416-0.073 0.583-0.221l2.301-2.039c0.363-0.322 0.397-0.879 0.075-1.242l-2.49-2.809c-0.322-0.363-0.879-0.396-1.242-0.075zM10.263 18.39l0.904 1.019-2.2 1.979-0.918-1.036zM10.463 23.076l-0.874-0.986 2.2-1.979 0.888 1.002z">
        </path>
        <path
          d="M21.137 8.346l-3.3 2.925c-0.19 0.169-0.303 0.401-0.319 0.655s0.069 0.498 0.238 0.688l2.396 2.702c0.168 0.19 0.401 0.303 0.655 0.319 0.020 0.001 0.039 0.002 0.058 0.002 0.233 0 0.455-0.084 0.63-0.239l3.3-2.925c0.19-0.168 0.303-0.401 0.319-0.655s-0.069-0.498-0.238-0.688l-2.395-2.702c-0.348-0.393-0.951-0.429-1.343-0.081zM24.177 11.761c-0 0.006-0.003 0.008-0.005 0.010v0l-3.3 2.925c-0.002 0.001-0.004 0.004-0.010 0.004s-0.008-0.003-0.010-0.005l-2.395-2.702c-0.001-0.001-0.004-0.004-0.004-0.010s0.003-0.008 0.005-0.010l3.3-2.925c0.003-0.002 0.006-0.004 0.009-0.004s0.008 0.001 0.011 0.005l2.396 2.702c0.001 0.001 0.004 0.004 0.003 0.010z">
        </path>
      </symbol>
      <symbol id="icon-rudder" viewBox="0 0 32 32">
        <path
          d="M29.709 13.707c-0.048 0-2.766 0.168-2.766 0.168-0.091-0.472-0.212-0.937-0.364-1.394-0.082-0.246-0.347-0.379-0.593-0.297s-0.378 0.347-0.297 0.593c2.573 7.733-4.976 15.421-12.764 12.959-0.247-0.078-0.51 0.059-0.588 0.306s0.059 0.51 0.306 0.588c0.405 0.128 0.816 0.232 1.233 0.313l-0.164 2.62c-0.081 1.301 0.984 2.436 2.288 2.436 1.264 0 2.293-1.028 2.293-2.291 0-0.048-0.169-2.767-0.169-2.767 1.497-0.29 2.889-0.88 4.109-1.706l1.741 1.973c0.857 0.971 2.425 1.019 3.34 0.104 0.921-0.921 0.877-2.474-0.104-3.34l-1.973-1.741c0.826-1.22 1.416-2.612 1.706-4.109 0 0 2.716 0.168 2.764 0.168 1.247 0 2.294-1.040 2.294-2.292 0-1.264-1.028-2.293-2.291-2.293zM17.352 29.624c0.045 0.707-0.653 1.439-1.352 1.439-0.866-0.090-1.317-0.57-1.352-1.439l0.159-2.54c0.796 0.085 1.591 0.085 2.387-0zM26.589 24.676c0.291 0.257 0.458 0.627 0.458 1.016 0 0.362-0.141 0.702-0.397 0.958-0.267 0.267-0.621 0.408-1 0.396s-0.724-0.174-0.974-0.458l-1.688-1.913c0.621-0.501 1.186-1.067 1.687-1.687zM29.623 17.352l-2.541-0.159c0.085-0.796 0.085-1.591 0-2.387 0 0 2.599-0.159 2.627-0.162 1.624-0.118 1.822 2.707-0.086 2.707z">
        </path>
        <path
          d="M13.022 6.233c4.521-1.38 9.558 0.649 11.876 4.759 0.188 0.239 0.401 0.298 0.639 0.178 0.225-0.127 0.305-0.413 0.178-0.639-0.148-0.263-0.308-0.518-0.476-0.766l1.971-1.739c0.96-0.847 0.998-2.435 0.104-3.34-0.922-0.922-2.477-0.873-3.34 0.104l-1.74 1.973c-1.234-0.832-2.631-1.415-4.109-1.703l0.164-2.625c0.081-1.301-0.985-2.435-2.289-2.435-1.264 0-2.293 1.028-2.293 2.291 0 0.047 0.168 2.765 0.168 2.765-0.38 0.074-0.757 0.166-1.127 0.279-0.248 0.076-0.387 0.338-0.312 0.585s0.338 0.387 0.585 0.312zM24.676 5.411c0.635-0.586 1.289-0.61 1.962-0.074 0.494 0.524 0.507 1.495-0.049 1.986l-1.909 1.685c-0.504-0.625-1.072-1.188-1.69-1.686zM14.644 2.291c0-0.746 0.608-1.354 1.356-1.354 0.866 0.090 1.317 0.57 1.353 1.44l-0.159 2.542c-0.796-0.087-1.592-0.087-2.388-0.002 0 0-0.162-2.598-0.162-2.626z">
        </path>
        <path
          d="M22.83 11.413c-1.208-2.293-4.364-3.622-6.804-3.622-4.462 0-8.209 3.737-8.209 8.208 0 4.464 3.742 8.209 8.209 8.209 4.771 0 8.209-3.738 8.209-8.209 0-1.613-0.502-3.253-1.404-4.587zM22.311 19.652l-2.217-1.956 2.955 0.185c-0.168 0.628-0.418 1.222-0.738 1.771zM17.88 23.031l-0.184-2.937 1.95 2.21c-0.548 0.316-1.14 0.562-1.766 0.727zM16 19.414c-1.883 0-3.414-1.532-3.414-3.414s1.531-3.414 3.414-3.414 3.414 1.531 3.414 3.414-1.532 3.414-3.414 3.414zM12.372 22.284l1.932-2.189-0.183 2.922c-0.62-0.168-1.207-0.417-1.749-0.733zM9.001 17.878l2.903-0.182-2.182 1.925c-0.312-0.541-0.556-1.127-0.721-1.744zM8.817 15.049l2.901 0.181c-0.093 0.512-0.093 1.025-0 1.538l-2.901 0.182c-0.145-0.481-0.145-1.294 0-1.901zM9.723 12.378l2.181 1.925-2.903-0.182c0.165-0.617 0.409-1.202 0.721-1.743zM14.121 8.983l0.183 2.921-1.931-2.189c0.542-0.316 1.129-0.565 1.748-0.733zM19.645 9.696l-1.949 2.209 0.184-2.936c0.625 0.165 1.218 0.411 1.766 0.727zM23.050 14.119l-2.955 0.185 2.217-1.956c0.32 0.549 0.57 1.143 0.738 1.771zM20.282 16.768c0.092-0.512 0.092-1.025 0-1.537l2.952-0.185c0.083 0.635 0.083 1.271 0 1.906zM21.783 11.564l-2.213 1.952c-0.295-0.423-0.664-0.791-1.087-1.087l1.949-2.209c0.506 0.387 0.961 0.839 1.35 1.344zM16.952 8.788l-0.183 2.93c-0.512-0.092-1.025-0.092-1.537 0l-0.183-2.923c0.634-0.085 1.268-0.088 1.903-0.007zM11.589 10.244l1.928 2.185c-0.424 0.295-0.792 0.664-1.087 1.087l-2.182-1.925c0.386-0.505 0.838-0.959 1.341-1.348zM10.248 20.408l2.182-1.925c0.295 0.423 0.664 0.792 1.087 1.087l-1.929 2.185c-0.503-0.389-0.954-0.842-1.34-1.347zM15.049 23.205l0.183-2.923c0.512 0.092 1.025 0.092 1.537 0l0.183 2.93c-0.634 0.081-1.269 0.078-1.903-0.007zM20.433 21.779l-1.949-2.209c0.423-0.295 0.791-0.663 1.087-1.087l2.213 1.952c-0.39 0.505-0.844 0.956-1.35 1.344z">
        </path>
        <path
          d="M11.125 24.971c-6.915-3.765-6.885-14.282 0.090-17.991 0.229-0.122 0.315-0.405 0.194-0.634s-0.405-0.315-0.634-0.194c-0.35 0.186-0.687 0.389-1.010 0.607l-1.738-1.969c-0.863-0.978-2.418-1.026-3.34-0.104s-0.873 2.477 0.104 3.34l1.969 1.737c-0.832 1.233-1.415 2.629-1.701 4.112l-2.623-0.164c-1.302-0.081-2.436 0.984-2.436 2.288 0 1.275 1.165 2.37 2.436 2.288l2.623-0.164c0.287 1.481 0.87 2.877 1.702 4.111l-1.97 1.739c-0.977 0.863-1.026 2.418-0.104 3.34 0.926 0.915 2.468 0.885 3.34-0.104l1.738-1.97c0.293 0.198 0.597 0.384 0.912 0.555 0.238 0.117 0.45 0.054 0.636-0.188 0.124-0.227 0.040-0.512-0.187-0.636zM5.411 7.324c-0.59-0.641-0.611-1.299-0.061-1.975 0.676-0.549 1.334-0.528 1.974 0.062l1.684 1.909c-0.626 0.504-1.192 1.070-1.69 1.687zM2.291 17.355c-0.746 0-1.353-0.608-1.353-1.355 0.090-0.866 0.57-1.317 1.439-1.353l2.541 0.159c-0.086 0.796-0.086 1.592 0 2.387 0 0-2.599 0.162-2.628 0.162zM7.324 26.589c-0.64 0.59-1.258 0.67-1.974 0.061-0.6-0.51-0.465-1.509 0.061-1.974l1.909-1.685c0.497 0.618 1.063 1.184 1.688 1.689z">
        </path>
        <path
          d="M16 13.59c-1.329 0-2.41 1.081-2.41 2.41s1.081 2.41 2.41 2.41 2.41-1.081 2.41-2.41-1.081-2.41-2.41-2.41zM16 17.473c-0.812 0-1.473-0.661-1.473-1.473s0.661-1.473 1.473-1.473 1.473 0.661 1.473 1.473-0.661 1.473-1.473 1.473z">
        </path>
      </symbol>
      <symbol id="icon-shield" viewBox="0 0 32 32">
        <path
          d="M15.46 12.201c0.209 0.198 0.555 0.158 0.714-0.081l3.12-4.708c0.143-0.216 0.084-0.507-0.132-0.65s-0.507-0.084-0.65 0.132l-2.812 4.243-1.562-1.483c-0.188-0.178-0.484-0.17-0.663 0.017s-0.17 0.484 0.017 0.663c-0 0 1.966 1.866 1.967 1.868z">
        </path>
        <path
          d="M15.78 19.351c0.090 0.041 0.189 0.063 0.287 0.063h0.004c0.1-0 0.201-0.023 0.291-0.066 7.128-3.39 8.336-10.704 8.536-12.865 0.046-0.493-0.232-0.953-0.691-1.143-1.419-0.589-2.384-1.907-2.517-3.438-0.041-0.471-0.444-0.839-0.919-0.839h-0.006l-9.603 0.056c-0.484 0.003-0.877 0.371-0.915 0.856-0.118 1.532-1.069 2.859-2.48 3.463-0.455 0.194-0.726 0.656-0.674 1.149 0.226 2.158 1.519 9.458 8.687 12.764zM8.136 6.299c1.731-0.74 2.897-2.365 3.046-4.243l9.575-0.056c0.17 1.874 1.353 3.484 3.091 4.205 0.078 0.032 0.125 0.109 0.117 0.191-0.188 2.025-1.313 8.854-7.899 12.053-6.624-3.122-7.828-9.937-8.040-11.96-0.009-0.082 0.036-0.158 0.11-0.19z">
        </path>
        <path
          d="M9.306 8.898c0.057 0.209 0.321 0.399 0.575 0.329 0.249-0.069 0.397-0.325 0.329-0.575-0.119-0.44-0.22-0.886-0.299-1.328 1.273-0.83 2.219-2.068 2.682-3.515l6.77-0.040c0.48 1.441 1.44 2.668 2.723 3.483-0.073 0.443-0.169 0.891-0.283 1.332-0.065 0.251 0.086 0.507 0.336 0.572s0.507-0.086 0.572-0.336c0.134-0.519 0.244-1.045 0.325-1.564 0.045-0.29-0.087-0.576-0.338-0.727-1.195-0.722-2.079-1.854-2.488-3.189-0.092-0.3-0.375-0.509-0.689-0.509h-0.004l-7.087 0.042c-0.316 0.002-0.599 0.215-0.687 0.517-0.393 1.339-1.263 2.482-2.45 3.218-0.249 0.154-0.378 0.441-0.329 0.731 0.087 0.518 0.203 1.043 0.343 1.56z">
        </path>
        <path
          d="M21.764 10.288c-0.239-0.099-0.513 0.015-0.612 0.254-1.083 2.626-2.798 4.622-5.098 5.935-2.318-1.288-4.058-3.268-5.172-5.885-0.102-0.238-0.377-0.349-0.615-0.248s-0.349 0.377-0.248 0.615c1.216 2.856 3.131 5.009 5.692 6.399 0.108 0.059 0.226 0.088 0.344 0.088 0.121 0 0.241-0.031 0.351-0.092 2.542-1.418 4.43-3.59 5.612-6.455 0.099-0.239-0.015-0.513-0.255-0.612z">
        </path>
        <path
          d="M3.008 25.048c-0.914 0-1.658 0.744-1.658 1.658s0.744 1.658 1.658 1.658c0.915 0 1.659-0.744 1.659-1.658s-0.744-1.658-1.659-1.658zM3.008 27.428c-0.397 0-0.721-0.323-0.721-0.721s0.324-0.721 0.721-0.721c0.398 0 0.721 0.323 0.721 0.721s-0.324 0.721-0.721 0.721z">
        </path>
        <path
          d="M31.664 20.459c-0.601-0.883-1.811-1.117-2.697-0.521l-6.128 4.101-1.308-0.073-0.033-0.335c-0.13-1.312-1.133-2.357-2.438-2.541-0.008-0.001-0.016-0.002-0.025-0.003l-6.603-0.579c-0.223-0.035-0.938-0.24-2.903-1.367-1.021-0.586-2.172-0.916-3.341-0.961v-1.226c0-0.615-0.5-1.116-1.116-1.116h-3.956c-0.615 0-1.116 0.501-1.116 1.116v12.078c0 0.615 0.501 1.116 1.116 1.116h3.956c0.615 0 1.116-0.501 1.116-1.116v-0.333l5.772 2.186c0.013 0.005 0.481 0.18 1.343 0.099 0.002-0 9.591-1.383 9.591-1.383 0.002-0 0.005-0.001 0.007-0.001 0.819-0.131 1.592-0.477 2.235-1.001 0.006-0.005 0.011-0.010 0.017-0.015l6.194-5.571c0.73-0.648 0.866-1.746 0.317-2.553zM30.722 22.313l-6.188 5.565c-0.512 0.415-1.127 0.69-1.778 0.794l-9.584 1.382c-0.002 0-0.005 0.001-0.008 0.001-0.001 0-0.003 0-0.005 0.001-0.287 0.045-0.585 0.026-0.888-0.057l-6.084-2.304v-5.353c0-0.259-0.21-0.469-0.469-0.469s-0.469 0.21-0.469 0.469v6.688c0 0.098-0.080 0.178-0.178 0.178h-3.956c-0.098 0-0.178-0.080-0.178-0.178v-12.078c0-0.098 0.080-0.178 0.178-0.178h3.956c0.098 0 0.178 0.080 0.178 0.178v3.272c0 0.259 0.21 0.469 0.469 0.469s0.469-0.21 0.469-0.469v-1.107c1.006 0.044 1.995 0.332 2.874 0.836 2.37 1.359 3.032 1.453 3.249 1.484 0.008 0.001 0.016 0.002 0.025 0.003l6.604 0.579c0.871 0.129 1.538 0.828 1.625 1.704l0.025 0.25-8.841 0.546c-0.006-0-0.012-0.001-0.018-0.001-0.287-0.026-0.545-0.161-0.729-0.382-0.166-0.199-0.461-0.226-0.66-0.060s-0.226 0.461-0.060 0.66c0.344 0.413 0.829 0.659 1.366 0.715 0.29 0.030 9.458-0.571 9.458-0.571l1.838 0.103c0.102 0.006 0.202-0.022 0.287-0.079l6.259-4.189c0.46-0.309 1.087-0.188 1.399 0.27 0.285 0.419 0.214 0.988-0.167 1.326z">
        </path>
      </symbol>
      <symbol id="icon-social" viewBox="0 0 32 32">
        <path
          d="M19.477 9.418c-0.75 0-1.375 0.54-1.509 1.252l-4.926 2.046h-1.786c-0.782 0-1.418 0.603-1.418 1.344v2.312c0 0.555 0.357 1.032 0.864 1.237v3.017c0 0.8 0.651 1.451 1.451 1.451s1.451-0.651 1.451-1.451v-2.676l4.362 1.812c0.133 0.712 0.759 1.252 1.509 1.252 0.847 0 1.535-0.689 1.535-1.535v-1.73c1.131-0.293 1.965-1.332 1.965-2.533s-0.834-2.239-1.965-2.533v-1.73c0-0.847-0.689-1.535-1.535-1.535zM13.605 13.5l4.336-1.801v7.035l-4.336-1.801zM10.777 14.060c0-0.223 0.215-0.405 0.479-0.405h1.41v3.121h-1.41c-0.264 0-0.479-0.181-0.479-0.404v-2.312zM12.154 21.138c-0.282 0-0.512-0.23-0.512-0.512v-2.91h1.024v2.91c0 0.282-0.23 0.512-0.512 0.512zM20.073 19.478c0 0.329-0.267 0.596-0.596 0.596s-0.596-0.267-0.596-0.596v-8.525c0-0.329 0.267-0.596 0.596-0.596s0.596 0.267 0.596 0.596zM22.037 15.216c0 0.684-0.422 1.286-1.025 1.544v-3.087c0.603 0.257 1.025 0.859 1.025 1.544z">
        </path>
        <path
          d="M27.692 24.031c-0.82 0-1.597 0.268-2.235 0.762l-2.129-2.129c1.602-1.76 2.456-3.962 2.561-6.194h1.706c0.216 1.003 1.11 1.758 2.177 1.758 1.228 0 2.227-0.999 2.227-2.227s-0.999-2.227-2.227-2.227c-1.067 0-1.961 0.754-2.177 1.758h-1.706c-0.105-2.232-0.959-4.434-2.561-6.194l2.129-2.129c0.634 0.491 1.408 0.759 2.223 0.762h0.002c0.259 0 0.469-0.209 0.47-0.468s-0.209-0.47-0.468-0.471c-0.724-0.002-1.404-0.285-1.916-0.797-1.061-1.061-1.061-2.788 0-3.849 0.514-0.514 1.198-0.797 1.925-0.797s1.41 0.283 1.924 0.797c0.514 0.514 0.797 1.198 0.797 1.925s-0.283 1.41-0.797 1.925c-0.12 0.12-0.252 0.23-0.391 0.325-0.214 0.146-0.269 0.439-0.123 0.653s0.439 0.269 0.653 0.123c0.187-0.128 0.364-0.274 0.525-0.436 0.692-0.691 1.072-1.611 1.072-2.589s-0.381-1.897-1.072-2.589-1.611-1.072-2.589-1.072-1.897 0.381-2.589 1.072c-1.315 1.315-1.417 3.389-0.31 4.823l-2.129 2.129c-1.76-1.602-3.962-2.456-6.194-2.561v-1.706c1.003-0.216 1.758-1.11 1.758-2.177-0-1.228-0.999-2.227-2.227-2.227s-2.227 0.999-2.227 2.227c0 1.067 0.754 1.961 1.758 2.177v1.706c-2.232 0.105-4.434 0.959-6.194 2.561l-2.129-2.129c1.107-1.435 1.005-3.509-0.31-4.823-0.691-0.691-1.611-1.072-2.589-1.072s-1.897 0.381-2.589 1.072-1.072 1.611-1.072 2.589 0.381 1.897 1.072 2.589 1.611 1.072 2.589 1.072c0.819 0 1.597-0.268 2.235-0.762l2.13 2.13c-0.522 0.573-0.975 1.202-1.347 1.876-0.125 0.227-0.043 0.513 0.184 0.638s0.513 0.043 0.638-0.184c0.405-0.733 0.914-1.409 1.512-2.007 3.495-3.496 9.183-3.496 12.679 0s3.496 9.183 0 12.679c-3.496 3.496-9.183 3.496-12.679 0-2.371-2.371-3.219-5.833-2.213-9.034 0.078-0.247-0.060-0.511-0.307-0.589s-0.511 0.060-0.589 0.307c-0.26 0.826-0.406 1.668-0.447 2.507h-1.7c-0.216-1.003-1.11-1.758-2.177-1.758-1.228-0-2.227 0.999-2.227 2.227s0.999 2.227 2.227 2.227c1.067 0 1.961-0.754 2.177-1.758h1.699c0.106 2.271 0.994 4.463 2.57 6.193l-2.13 2.13c-0.638-0.494-1.415-0.762-2.235-0.762-0.978 0-1.897 0.381-2.589 1.072s-1.072 1.611-1.072 2.589 0.381 1.897 1.072 2.589 1.611 1.072 2.589 1.072c0.259 0 0.47-0.21 0.47-0.47s-0.21-0.47-0.47-0.47c-0.727 0-1.41-0.283-1.925-0.797s-0.797-1.198-0.797-1.925c0-0.727 0.283-1.41 0.797-1.924s1.197-0.797 1.925-0.797 1.41 0.283 1.925 0.797c1.061 1.061 1.061 2.788 0 3.849-0.131 0.131-0.275 0.248-0.427 0.349-0.216 0.143-0.276 0.434-0.133 0.651s0.434 0.276 0.651 0.133c0.205-0.136 0.399-0.293 0.574-0.469 1.315-1.315 1.417-3.389 0.31-4.823l2.129-2.129c1.76 1.602 3.962 2.456 6.194 2.561v1.706c-1.003 0.216-1.758 1.11-1.758 2.177-0 1.228 0.999 2.227 2.227 2.227s2.227-0.999 2.227-2.227c0-1.067-0.754-1.961-1.758-2.177v-1.706c2.232-0.105 4.434-0.959 6.194-2.561l2.129 2.129c-1.107 1.435-1.005 3.509 0.31 4.823 0.692 0.692 1.611 1.072 2.589 1.072s1.897-0.381 2.589-1.072 1.072-1.611 1.072-2.589-0.381-1.897-1.072-2.589-1.611-1.072-2.589-1.072zM14.712 2.227c0-0.71 0.578-1.288 1.288-1.288s1.288 0.578 1.288 1.288-0.578 1.288-1.288 1.288-1.288-0.578-1.288-1.288zM2.384 6.233c-0.514-0.514-0.797-1.197-0.797-1.925s0.283-1.41 0.797-1.925c0.514-0.514 1.197-0.797 1.925-0.797s1.41 0.283 1.925 0.797c1.061 1.061 1.061 2.788 0 3.849-0.514 0.514-1.197 0.797-1.925 0.797s-1.41-0.283-1.925-0.797zM29.773 14.712c0.71 0 1.288 0.578 1.288 1.288s-0.578 1.288-1.288 1.288-1.288-0.578-1.288-1.288 0.578-1.288 1.288-1.288zM2.227 17.288c-0.71 0-1.288-0.578-1.288-1.288s0.578-1.288 1.288-1.288 1.288 0.578 1.288 1.288-0.578 1.288-1.288 1.288zM17.288 29.773c0 0.71-0.578 1.288-1.288 1.288s-1.288-0.578-1.288-1.288 0.578-1.288 1.288-1.288 1.288 0.578 1.288 1.288zM29.616 29.616c-0.514 0.514-1.198 0.797-1.925 0.797s-1.41-0.283-1.925-0.797c-1.061-1.061-1.061-2.788 0-3.849 0.514-0.514 1.198-0.797 1.925-0.797s1.41 0.283 1.925 0.797c0.514 0.514 0.797 1.198 0.797 1.925s-0.283 1.41-0.797 1.924z">
        </path>
      </symbol>
      <symbol id="icon-student" viewBox="0 0 32 32">
        <path
          d="M2.522 32h26.762c0.813 0 1.475-0.666 1.475-1.485v-0.753c0-0.379-0.308-0.688-0.686-0.688h-0.585c0.118-0.237 0.184-0.502 0.184-0.777v-9.781c0-0.975-0.793-1.768-1.768-1.768h-6.067c-0.259 0-0.469 0.21-0.469 0.469s0.21 0.469 0.469 0.469h6.067c0.458 0 0.83 0.372 0.83 0.83v9.781c0 0.344-0.219 0.655-0.539 0.777h-14.334c-0.331-0.127-0.54-0.444-0.54-0.777 0-0.959 0-8.829 0-9.781 0-0.458 0.373-0.83 0.83-0.83h5.497c0.259 0 0.469-0.21 0.469-0.469s-0.21-0.469-0.469-0.469h-3.451l-0.001-1.205c1.074-0.786 1.817-1.996 1.983-3.381 1.22-0.107 2.127-1.079 2.127-2.213 0-0.776-0.394-1.494-1.006-1.911 0.065-0.156 0.101-0.327 0.101-0.506v-0.919c0-0.259-0.21-0.469-0.469-0.469s-0.469 0.21-0.469 0.469v0.919c0 0.204-0.162 0.385-0.398 0.381-0.645-0.009-1.137-0.544-1.137-1.153 0-0.254-0.172-0.474-0.419-0.536-0.251-0.063-0.504 0.057-0.621 0.275-0.467 0.873-1.37 1.415-2.358 1.415h-5.367c-0.45 0-0.854-0.365-0.854-0.854v-3.449c0-1.474 1.199-2.673 2.673-2.673h4.728c1.098 0 1.284 0.485 1.389 1.025 0.125 0.639 0.723 1.082 1.393 1.030 0.47-0.036 0.97 0.371 0.97 0.94v0.492c0 0.259 0.21 0.469 0.469 0.469s0.469-0.21 0.469-0.469v-0.492c0-1.13-0.979-1.952-1.98-1.875-0.198 0.016-0.367-0.101-0.401-0.276-0.235-1.2-0.99-1.783-2.31-1.783h-4.728c-1.991 0-3.611 1.62-3.611 3.611v3.449c0 0.491 0.199 0.936 0.519 1.26-0.454 0.428-0.731 1.023-0.731 1.636 0 1.129 0.905 2.103 2.127 2.207 0.162 1.361 0.879 2.578 1.98 3.375v1.21c-1.253 0.489-5.026 1.963-6.291 2.457-0.003 0.001-0.005 0.002-0.008 0.003-1.315 0.541-2.73 2.092-2.73 4.218v7.292c-0 0.707 0.575 1.282 1.282 1.282zM18.218 8.845c0.147-0.015 0.294-0.058 0.416-0.114 0.436 0.222 0.737 0.706 0.737 1.219 0 0.641-0.509 1.157-1.153 1.264zM8.254 11.214c-0.644-0.104-1.153-0.62-1.153-1.259 0-0.448 0.276-0.899 0.688-1.145 0.203 0.044 0.343 0.041 0.465 0.041zM29.822 30.011v0.504c0 0.302-0.241 0.548-0.538 0.548h-16.51c-0.296 0-0.538-0.246-0.538-0.548v-0.504zM14.154 16.748c-0.824 0-1.518 0.567-1.713 1.331l-1.237-1.237c0.005-0.078 0.004 0.065 0.004-0.771 0.676 0.292 1.384 0.42 2.093 0.42 0.697 0 1.36-0.147 1.961-0.409l0.001 0.666zM9.191 11.573v-2.722h4.342c1.036 0 1.999-0.442 2.67-1.18 0.22 0.453 0.599 0.813 1.064 1.012 0.005 0.002 0.010 0.004 0.014 0.007v2.884c0 1.351-0.688 2.598-1.804 3.33-2.685 1.701-6.286-0.123-6.286-3.33zM10.644 17.608l1.742 1.742v0.896l-0.468 0.468c-0.061 0.061-0.163 0.061-0.224 0l-2.528-2.528zM2.178 23.426c0-1.807 1.282-2.992 2.146-3.35l3.889-1.519 2.818 2.818c0.367 0.367 0.931 0.419 1.354 0.154v6.767c0 0.259 0.062 0.533 0.183 0.777h-0.584c-0.378 0-0.686 0.309-0.686 0.688v0.753c0 0.194 0.039 0.383 0.104 0.548h-5.28c0-0.792 0-5.798 0-6.979 0-0.259-0.21-0.469-0.469-0.469s-0.469 0.21-0.469 0.469v1.151h-3.007zM2.178 26.172h3.007v1.167h-3.007zM2.178 28.276h3.007v2.786h-2.663c-0.19 0-0.344-0.154-0.344-0.344z">
        </path>
        <path
          d="M15.794 21.098c-0.276 0.138-0.448 0.416-0.448 0.725s0.172 0.587 0.448 0.725l1.082 0.542v2.569c0 0.434 0.234 0.83 0.61 1.033 2.030 1.095 4.489 1.092 6.515 0 0.122-0.066 0.23-0.153 0.319-0.254l-0.031 0.119c-0.16 0.611 0.3 1.209 0.933 1.209h0.901c0.632 0 1.094-0.597 0.933-1.209 0 0 0 0 0-0l-0.2-0.764c-0.097-0.371-0.368-0.661-0.715-0.798v-3.172c0-0.309-0.172-0.587-0.448-0.725l-4.393-2.201c-0.349-0.175-0.765-0.175-1.113 0zM25.673 25.845c0.152-0.001 0.25 0.083 0.277 0.186l0.2 0.764c0.005 0.018-0.008 0.034-0.026 0.034h-0.901c-0.018 0-0.031-0.017-0.026-0.034l0.2-0.764c0.027-0.104 0.122-0.187 0.277-0.186zM24.612 23.091l0.592-0.297v2.201c-0.249 0.099-0.458 0.276-0.592 0.505zM23.674 25.66c0 0.088-0.046 0.169-0.118 0.208-1.752 0.945-3.876 0.943-5.625 0-0.072-0.039-0.118-0.12-0.118-0.208v-2.1l2.373 1.189c0.341 0.171 0.758 0.178 1.113 0l2.373-1.189zM20.881 19.736l3.232 1.619h-3.369c-0.259 0-0.469 0.21-0.469 0.469s0.21 0.469 0.469 0.469h3.369c-0.327 0.164-2.869 1.437-3.232 1.619-0.086 0.043-0.188 0.043-0.274 0l-4.168-2.088 4.168-2.088c0.086-0.043 0.188-0.043 0.274 0z">
        </path>
      </symbol>
      <symbol id="icon-talk" viewBox="0 0 32 32">
        <path
          d="M28.551 11.744c-0.201-0.169-0.501-0.142-0.67 0.059s-0.142 0.501 0.059 0.67c1.948 1.633 3.081 4.014 3.109 6.532 0.017 1.516-0.364 3.012-1.101 4.325-0.714 1.273-1.747 2.354-2.988 3.125-0.743 0.462-1.091 1.335-0.866 2.173l0.334 1.244c0.049 0.182-0.063 0.29-0.114 0.327s-0.185 0.114-0.346 0.015l-1.721-1.060c-1.23-0.758-2.547-1.311-3.915-1.645-1.849-0.452-3.523-1.526-4.716-3.024-1.228-1.544-1.877-3.405-1.877-5.383 0-2.298 0.891-4.461 2.508-6.093 1.616-1.631 3.77-2.54 6.064-2.562 1.495-0.014 2.97 0.364 4.274 1.092 0.229 0.128 0.519 0.046 0.647-0.183s0.046-0.519-0.183-0.647c-1.448-0.809-3.086-1.228-4.747-1.213-1.073 0.010-2.118 0.196-3.102 0.542-0.108-2.384-1.083-4.614-2.774-6.32-1.794-1.81-4.184-2.819-6.731-2.843-2.548-0.026-4.968 0.953-6.804 2.752s-2.864 4.195-2.892 6.745c-0.019 1.683 0.404 3.343 1.222 4.801 0.792 1.412 1.938 2.611 3.314 3.468 0.385 0.239 0.565 0.689 0.45 1.119l-0.334 1.244c-0.135 0.501 0.047 1.026 0.463 1.337 0.224 0.167 0.487 0.251 0.752 0.251 0.228 0 0.457-0.063 0.661-0.188l1.721-1.061c1.146-0.706 2.371-1.22 3.642-1.531 0.305-0.074 0.607-0.165 0.906-0.27 0.090 2.031 0.802 3.936 2.074 5.535 1.323 1.663 3.182 2.855 5.234 3.356 1.272 0.311 2.497 0.826 3.642 1.531l1.721 1.061c0.205 0.126 0.433 0.188 0.661 0.188 0.265 0 0.528-0.084 0.752-0.251 0.416-0.31 0.598-0.835 0.464-1.336l-0.334-1.244c-0.115-0.43 0.065-0.879 0.45-1.119 1.376-0.856 2.522-2.055 3.315-3.467 0.818-1.458 1.241-3.118 1.222-4.801-0.031-2.796-1.288-5.439-3.449-7.25zM11.668 18.887c-1.368 0.334-2.685 0.887-3.916 1.645l-1.721 1.061c-0.16 0.099-0.295 0.022-0.345-0.015s-0.163-0.145-0.114-0.328l0.334-1.244c0.224-0.837-0.124-1.71-0.866-2.173-1.24-0.772-2.274-1.853-2.988-3.125-0.737-1.313-1.117-2.809-1.101-4.325 0.025-2.297 0.95-4.455 2.606-6.076s3.831-2.502 6.13-2.48c2.294 0.021 4.448 0.931 6.064 2.561 1.605 1.619 2.494 3.761 2.508 6.039-0.987 0.471-1.895 1.114-2.688 1.913-1.658 1.673-2.628 3.851-2.766 6.184-0.372 0.148-0.754 0.271-1.139 0.365z">
        </path>
        <path
          d="M13.945 12.297c0.751-1.306 0.93-2.771 0.503-4.125-0.339-1.077-1.334-1.895-2.477-2.033-0.904-0.11-1.738 0.218-2.366 0.911-0.628-0.693-1.462-1.021-2.366-0.911-1.142 0.139-2.137 0.956-2.477 2.033-0.317 1.007-0.303 2.081 0.041 3.103 0.083 0.249 0.353 0.383 0.602 0.299s0.383-0.353 0.299-0.602c-0.279-0.831-0.291-1.7-0.035-2.515 0.226-0.716 0.918-1.282 1.684-1.374 0.739-0.090 1.395 0.269 1.845 1.009 0.086 0.142 0.24 0.228 0.406 0.228s0.32-0.087 0.406-0.228c0.45-0.74 1.105-1.099 1.845-1.009 0.766 0.093 1.459 0.658 1.684 1.374 0.351 1.114 0.205 2.278-0.421 3.366-0.677 1.177-1.889 2.198-3.515 2.962-1.344-0.63-2.387-1.42-3.104-2.348-0.16-0.208-0.459-0.247-0.667-0.086s-0.247 0.459-0.086 0.667c0.848 1.099 2.080 2.015 3.662 2.724 0.062 0.028 0.128 0.042 0.194 0.042s0.133-0.014 0.195-0.042c1.908-0.855 3.341-2.046 4.145-3.445z">
        </path>
        <path
          d="M26.873 16.439c-0.294-0.294-0.685-0.456-1.099-0.456l-3.060-0.007c0.391-0.714 0.656-1.519 0.799-2.019 0.126-0.439 0.073-0.901-0.148-1.3s-0.585-0.688-1.024-0.814c-0.439-0.126-0.901-0.073-1.3 0.149s-0.688 0.585-0.814 1.024c-0.018 0.063-0.063 0.175-0.17 0.349-0.070 0.113-0.157 0.237-0.26 0.369-0.227 0.291-0.509 0.559-0.838 0.796-0.675 0.485-1.8 1.549-1.76 3.231v3.213c0 1.356 0.652 2.578 1.837 3.439 1.019 0.741 2.354 1.166 3.664 1.166h2.637c0.415 0 0.806-0.162 1.101-0.456s0.456-0.685 0.456-1.101c0-0.324-0.099-0.625-0.27-0.874 0.091-0.059 0.177-0.128 0.255-0.207 0.294-0.294 0.456-0.685 0.456-1.101 0-0.334-0.104-0.651-0.298-0.916 0.059-0.044 0.114-0.093 0.167-0.145 0.294-0.294 0.456-0.685 0.456-1.1s-0.162-0.807-0.456-1.101c-0.051-0.051-0.105-0.098-0.162-0.141 0.181-0.254 0.287-0.565 0.287-0.9 0-0.416-0.162-0.807-0.456-1.1zM26.532 20.109c-0.114 0.114-0.266 0.177-0.428 0.177h-0.325c-0.263 0-0.475 0.213-0.475 0.475s0.213 0.476 0.475 0.476c0.162 0 0.314 0.063 0.428 0.177s0.177 0.266 0.177 0.428c0 0.162-0.063 0.314-0.177 0.428s-0.267 0.177-0.428 0.177c-0.007 0-0.014 0-0.022 0l-0.441 0.020c-0.258 0.012-0.459 0.228-0.454 0.486s0.217 0.465 0.475 0.465c0.334 0 0.605 0.271 0.605 0.605 0 0.162-0.063 0.314-0.177 0.428s-0.267 0.177-0.428 0.177h-2.637c-1.097 0-2.257-0.368-3.104-0.984-0.659-0.48-1.446-1.332-1.446-2.67v-3.219c0-0.004 0-0.008 0-0.012-0.032-1.249 0.841-2.065 1.364-2.441 0.404-0.29 0.751-0.621 1.034-0.984 0.123-0.158 0.23-0.311 0.318-0.452 0.134-0.217 0.224-0.409 0.275-0.588 0.056-0.194 0.184-0.356 0.361-0.454 0.114-0.063 0.24-0.095 0.367-0.095 0.070 0 0.141 0.010 0.21 0.030 0.195 0.056 0.356 0.184 0.455 0.361s0.122 0.382 0.066 0.577c-0.144 0.503-0.543 1.748-1.135 2.447-0.12 0.141-0.147 0.339-0.069 0.507s0.246 0.276 0.431 0.276l3.947 0.008c0.161 0 0.313 0.063 0.428 0.178s0.177 0.266 0.177 0.427c0 0.334-0.271 0.605-0.605 0.605-0.262 0-0.475 0.213-0.475 0.476s0.213 0.475 0.476 0.475h0.485c0.103 0.027 0.197 0.081 0.274 0.157 0.114 0.114 0.177 0.266 0.177 0.428s-0.063 0.314-0.177 0.428z">
        </path>
      </symbol>
      <symbol id="icon-workspace" viewBox="0 0 32 32">
        <path
          d="M31.516 26.131c-0.259 0-0.468 0.21-0.468 0.468v4.901c0 0.604 0.937 0.604 0.937 0v-4.901c0-0.259-0.21-0.468-0.468-0.468z">
        </path>
        <path
          d="M31.516 15.569h-3.677v-1.689h1.125c0.685 0 1.241-0.557 1.241-1.241v-11.398c0-0.685-0.557-1.242-1.241-1.242h-17.471c-0.685 0-1.241 0.557-1.241 1.242v1.681c0 0.604 0.937 0.604 0.937 0v-1.681c0-0.168 0.137-0.305 0.305-0.305h17.471c0.168 0 0.305 0.137 0.305 0.305v9.080h-1.429v-4.989c0-0.155-0.076-0.299-0.204-0.386s-0.29-0.106-0.434-0.050c-0.122 0.048-2.706 1.103-3.256 5.426h-12.758v-4.964c0-0.604-0.937-0.604-0.937 0v7.281c0 0.685 0.557 1.241 1.241 1.241h6.29v1.689h-10.633c1.037-1.036 1.139-2.677 1.139-4.055 0-0.259-0.21-0.468-0.468-0.468h-2.529v-0.884c1.502 0.319 3.14-0.913 3.12-2.475-0.003-0.209-0.029-0.422-0.222-0.55-0.889-0.587-2.115-0.342-2.898 0.299v-0.845c1.338-0.924 1.438-3.099 0.152-4.114-0.13-0.102-0.273-0.2-0.427-0.262-0.66-0.27-1.386 0.906-1.543 1.36-0.372 1.072-0.035 2.306 0.881 2.986v0.87c-0.601-0.489-1.386-0.73-2.153-0.577-0.317 0.064-0.872 0.207-0.941 0.591-0.297 1.653 1.576 3.037 3.095 2.719v0.883h-2.716c-0.259 0-0.468 0.21-0.468 0.468 0 1.377 0.075 3.019 1.112 4.055h-1.799c-0.259 0-0.468 0.21-0.468 0.468v15.463c0 0.604 0.937 0.604 0.937 0v-2.185h8.46v2.185c0 0.604 0.937 0.604 0.937 0v-11.926h16.56c0.002 0.163 0.018 1.042 0.020 1.305h-7.925c-1.851 0-3.223 0.482-4.077 1.432-1.025 1.141-0.89 2.524-0.884 2.582 0.025 0.238 0.226 0.418 0.466 0.418h6.050v0.843h-1.842c-0.604 0-0.604 0.937 0 0.937h1.842v3.94h-5.994c-0.604 0-0.604 0.937 0 0.937h6.295c0.052 0.020 0.108 0.031 0.167 0.031s0.115-0.011 0.167-0.031h6.295c0.604 0 0.604-0.937 0-0.937h-5.994v-5.719h3.129c1.075 0 1.852-0.259 2.376-0.792 0.918-0.934 0.89-2.499 0.854-4.48-0.003-0.153-0.005-0.309-0.008-0.466h3.202v4.402c0 0.604 0.937 0.604 0.937 0v-7.939c0-0.259-0.21-0.468-0.468-0.468zM6.074 8.023c0.603-0.382 1.127-0.292 1.4-0.196-0.082 0.971-1.263 1.677-2.165 1.371 0.038-0.3 0.19-0.811 0.765-1.175zM2.961 8.997c-0.398-0.252-0.736-0.687-0.78-1.17 0.938-0.33 2.041 0.401 2.163 1.372-0.455 0.154-0.984 0.052-1.383-0.201zM4.848 3.195c0.784 0.597 0.749 1.958-0.003 2.563-0.232-0.191-0.582-0.592-0.582-1.276-0-0.714 0.357-1.108 0.585-1.287zM2.114 11.982h5.231c-0.079 2.53-0.834 3.528-2.615 3.528-1.806 0-2.54-0.966-2.616-3.528zM26.331 23.864c-0.338 0.345-0.897 0.512-1.708 0.512h-9.637c0.043-0.374 0.188-0.938 0.637-1.438 0.669-0.744 1.806-1.122 3.38-1.122h7.913c-0.039 0.918-0.177 1.632-0.586 2.048zM29.268 11.259v1.381c0 0.168-0.137 0.305-0.305 0.305h-1.125v-1.686h1.429zM26.17 6.953c0.255-0.337 0.511-0.588 0.732-0.769v11.73c-0.22-0.189-0.475-0.446-0.728-0.788-0.913-1.232-1.395-3-1.395-5.112 0-2.109 0.481-3.859 1.391-5.061zM23.969 13.881c0.089 0.63 0.222 1.191 0.383 1.689h-1.679v-1.689h1.296zM11.188 12.639v-1.381h12.675c-0.029 0.561-0.026 1.125 0.011 1.686h-12.38c-0.168 0-0.305-0.137-0.305-0.305zM18.72 13.881h3.017v1.689h-3.017v-1.689zM24.72 16.506c0.488 1.043 1.094 1.716 1.584 2.132h-25.351v-2.132h23.767zM0.952 28.379v-3.934h8.46v3.934h-8.46zM9.413 23.508h-8.46v-3.934h8.46v3.934zM27.839 18.638v-2.132h3.209v2.132h-3.209z">
        </path>
        <path d="M3.419 22.010h3.559c0.604 0 0.604-0.937 0-0.937h-3.559c-0.604 0-0.604 0.937 0 0.937z"></path>
        <path d="M6.978 25.943h-3.559c-0.604 0-0.604 0.937 0 0.937h3.559c0.604 0 0.604-0.937 0-0.937z"></path>
      </symbol>
      <symbol id="icon-xing" viewBox="0 0 32 32">
        <path
          d="M29.361 0h-19.775c-0.277 0-0.501 0.224-0.501 0.501s0.224 0.501 0.501 0.501h19.774c0.903 0 1.637 0.734 1.637 1.637v26.722c0 0.902-0.734 1.637-1.637 1.637h-26.722c-0.903 0-1.637-0.734-1.637-1.637v-26.722c0-0.902 0.734-1.637 1.637-1.637h4.81c0.277 0 0.501-0.224 0.501-0.501s-0.224-0.501-0.501-0.501h-4.81c-1.455 0-2.639 1.184-2.639 2.639v26.722c0 1.455 1.184 2.639 2.639 2.639h26.722c1.455 0 2.639-1.184 2.639-2.639v-26.722c0-1.455-1.184-2.639-2.639-2.639z">
        </path>
        <path
          d="M15.904 13.084l-2.672-4.81c-0.088-0.159-0.256-0.258-0.438-0.258h-4.81c-0.375 0-0.62 0.416-0.438 0.744l2.539 4.57-3.611 6.707c-0.177 0.328 0.070 0.739 0.441 0.739h4.81c0.184 0 0.354-0.101 0.441-0.264l3.741-6.948c0.081-0.15 0.080-0.332-0.003-0.481zM11.425 19.775h-3.672l3.343-6.209c0.081-0.15 0.080-0.332-0.003-0.481l-2.259-4.066h3.664l2.396 4.313-3.469 6.443z">
        </path>
        <path
          d="M27.758 3.207h-4.81c-0.182 0-0.35 0.099-0.438 0.258l-8.017 14.43c-0.086 0.154-0.084 0.342 0.004 0.494l5.879 10.155c0.090 0.155 0.255 0.25 0.434 0.25h4.81c0.37 0 0.616-0.406 0.443-0.734l-5.223-9.923 4.591-8.853c0.127-0.246 0.032-0.548-0.214-0.675s-0.548-0.032-0.675 0.214l-4.711 9.086c-0.076 0.146-0.075 0.319 0.001 0.464l4.958 9.42h-3.691l-5.592-9.659 7.736-13.924h3.691l-1.56 3.010c-0.127 0.246-0.032 0.548 0.214 0.675s0.548 0.032 0.675-0.214l1.94-3.741c0.17-0.328-0.076-0.732-0.445-0.732z">
        </path>
      </symbol>
      <symbol id="icon-rating" viewBox="0 0 32 32">
        <path
          d="M30.4 0h-28.8c-0.883 0.001-1.599 0.717-1.6 1.6v7.467c0.001 0.883 0.717 1.599 1.6 1.6h20.8v1.6c0 0.19 0.101 0.366 0.266 0.461s0.367 0.096 0.532 0.002l3.61-2.063h3.592c0.883-0.001 1.599-0.717 1.6-1.6v-7.467c-0.001-0.883-0.717-1.599-1.6-1.6zM30.933 9.067c-0 0.294-0.239 0.533-0.533 0.533h-3.592c-0.186 0-0.368 0.049-0.529 0.141l-2.812 1.607v-0.681c-0.001-0.589-0.478-1.066-1.067-1.067h-20.8c-0.294-0-0.533-0.239-0.533-0.533v-7.467c0-0.294 0.239-0.533 0.533-0.533h28.8c0.294 0 0.533 0.239 0.533 0.533z">
        </path>
        <path
          d="M8.733 28.913c1.903 1.973 4.526 3.087 7.267 3.087s5.364-1.114 7.267-3.087c0.033-0.028 0.062-0.060 0.087-0.096 3.802-4.011 3.689-10.328-0.253-14.2s-10.26-3.872-14.202 0c-3.942 3.872-4.055 10.189-0.253 14.2 0.025 0.036 0.054 0.068 0.087 0.096zM9.641 28.319c0.325-2.439 3.056-4.319 6.359-4.319s6.034 1.88 6.359 4.319c-3.523 3.486-9.196 3.486-12.719 0zM16 12.8c3.44-0.006 6.587 1.938 8.119 5.018s1.186 6.762-0.894 9.503c-0.623-1.889-2.411-3.393-4.711-4.040 1.83-1.125 2.689-3.328 2.105-5.395s-2.471-3.494-4.619-3.494-4.034 1.427-4.619 3.494c-0.585 2.067 0.275 4.27 2.105 5.395-2.3 0.647-4.088 2.151-4.711 4.040-2.080-2.74-2.426-6.423-0.894-9.503s4.679-5.025 8.119-5.018zM16 22.933c-2.062 0-3.733-1.671-3.733-3.733s1.671-3.733 3.733-3.733 3.733 1.671 3.733 3.733c-0.002 2.061-1.672 3.731-3.733 3.733z">
        </path>
        <path
          d="M6.795 4.101l-0.884-0.134-0.4-0.846c-0.128-0.277-0.406-0.454-0.711-0.454s-0.583 0.177-0.711 0.454l-0.4 0.846-0.884 0.134c-0.294 0.045-0.537 0.252-0.63 0.534-0.097 0.287-0.025 0.605 0.188 0.821l0.654 0.666-0.155 0.945c-0.053 0.304 0.074 0.611 0.327 0.788 0.243 0.174 0.565 0.192 0.826 0.047l0.785-0.432 0.785 0.431c0.261 0.146 0.583 0.127 0.827-0.047 0.252-0.177 0.379-0.484 0.327-0.788l-0.155-0.946 0.654-0.666c0.213-0.216 0.285-0.534 0.188-0.821-0.093-0.282-0.336-0.489-0.63-0.534zM5.73 5.47c-0.181 0.184-0.262 0.443-0.22 0.697l0.086 0.525-0.422-0.232c-0.234-0.128-0.516-0.128-0.75 0.001l-0.42 0.231 0.086-0.522c0.043-0.254-0.038-0.514-0.219-0.699l-0.386-0.393 0.512-0.078c0.26-0.040 0.483-0.207 0.594-0.445l0.208-0.441 0.208 0.44c0.111 0.239 0.334 0.406 0.594 0.446l0.513 0.078z">
        </path>
        <path
          d="M14.261 4.101l-0.884-0.134-0.4-0.846c-0.128-0.277-0.406-0.454-0.711-0.454s-0.583 0.177-0.711 0.454l-0.4 0.846-0.884 0.134c-0.294 0.045-0.537 0.252-0.63 0.534-0.097 0.287-0.025 0.605 0.188 0.821l0.653 0.666-0.155 0.945c-0.053 0.304 0.074 0.611 0.327 0.788 0.243 0.174 0.565 0.192 0.826 0.047l0.785-0.432 0.785 0.431c0.261 0.146 0.583 0.127 0.827-0.047 0.252-0.177 0.379-0.484 0.327-0.788l-0.155-0.946 0.654-0.666c0.213-0.216 0.285-0.534 0.188-0.821-0.093-0.282-0.336-0.489-0.63-0.534zM13.196 5.47c-0.181 0.184-0.262 0.443-0.22 0.697l0.086 0.525-0.422-0.232c-0.233-0.128-0.516-0.128-0.749 0.001l-0.42 0.231 0.086-0.522c0.043-0.254-0.038-0.514-0.219-0.699l-0.386-0.393 0.512-0.078c0.26-0.040 0.483-0.207 0.594-0.445l0.208-0.441 0.208 0.44c0.111 0.239 0.334 0.406 0.594 0.446l0.513 0.078z">
        </path>
        <path
          d="M21.728 4.101l-0.884-0.134-0.4-0.846c-0.128-0.277-0.406-0.454-0.711-0.454s-0.583 0.177-0.711 0.454l-0.4 0.846-0.884 0.134c-0.294 0.045-0.537 0.252-0.63 0.534-0.097 0.287-0.025 0.605 0.188 0.821l0.654 0.666-0.155 0.945c-0.053 0.304 0.074 0.611 0.327 0.788 0.243 0.174 0.565 0.192 0.826 0.047l0.785-0.432 0.785 0.431c0.261 0.146 0.583 0.127 0.827-0.047 0.252-0.177 0.379-0.484 0.327-0.788l-0.155-0.946 0.654-0.666c0.213-0.216 0.285-0.534 0.188-0.821-0.093-0.282-0.336-0.489-0.63-0.534zM20.663 5.47c-0.18 0.184-0.262 0.443-0.22 0.697l0.086 0.525-0.422-0.232c-0.233-0.128-0.516-0.128-0.75 0.001l-0.42 0.231 0.086-0.522c0.043-0.254-0.038-0.514-0.219-0.699l-0.386-0.393 0.512-0.078c0.26-0.040 0.483-0.207 0.594-0.445l0.208-0.441 0.208 0.44c0.111 0.239 0.334 0.406 0.594 0.446l0.513 0.078z">
        </path>
        <path
          d="M29.195 4.101l-0.884-0.134-0.4-0.846c-0.128-0.277-0.406-0.454-0.711-0.454s-0.583 0.177-0.711 0.454l-0.4 0.846-0.884 0.134c-0.294 0.045-0.537 0.252-0.63 0.534-0.097 0.287-0.025 0.605 0.188 0.821l0.654 0.666-0.155 0.945c-0.053 0.304 0.074 0.611 0.327 0.788 0.243 0.174 0.565 0.192 0.826 0.047l0.785-0.432 0.785 0.431c0.261 0.146 0.583 0.127 0.827-0.047 0.252-0.177 0.379-0.484 0.327-0.788l-0.155-0.946 0.654-0.666c0.213-0.216 0.285-0.534 0.188-0.821-0.093-0.282-0.336-0.489-0.63-0.534zM28.13 5.47c-0.18 0.184-0.262 0.443-0.22 0.697l0.086 0.525-0.422-0.232c-0.233-0.128-0.516-0.128-0.75 0.001l-0.42 0.231 0.086-0.522c0.043-0.254-0.038-0.514-0.219-0.699l-0.386-0.393 0.512-0.078c0.26-0.040 0.483-0.207 0.594-0.445l0.208-0.441 0.208 0.44c0.111 0.239 0.334 0.406 0.594 0.446l0.513 0.078z">
        </path>
      </symbol>
      <symbol id="icon-right-arrow" viewBox="0 0 32 32">
        <path
          d="M31.788 15.487v0l-7.273-7.273c-0.261-0.305-0.72-0.341-1.025-0.079s-0.341 0.72-0.079 1.025c0.024 0.028 0.051 0.055 0.079 0.079l6.029 6.036h-28.792c-0.402 0-0.727 0.326-0.727 0.727s0.326 0.727 0.727 0.727h28.792l-6.029 6.029c-0.305 0.261-0.341 0.72-0.079 1.025s0.72 0.341 1.025 0.079c0.028-0.024 0.055-0.051 0.079-0.079l7.273-7.273c0.282-0.284 0.282-0.742-0-1.025z">
        </path>
      </symbol>
      <symbol id="icon-cancel" viewBox="0 0 32 32">
        <path
          d="M32 2.514l-2.514-2.514-13.486 13.486-13.486-13.486-2.514 2.514 13.486 13.486-13.486 13.486 2.514 2.514 13.486-13.486 13.486 13.486 2.514-2.514-13.486-13.486z">
        </path>
      </symbol>
      <symbol id="icon-info" viewBox="0 0 32 32">
        <path
          d="M16 0c-8.836 0-16 7.164-16 16s7.164 16 16 16 16-7.164 16-16c-0.010-8.833-7.167-15.99-16-16zM16 30.4c-7.953 0-14.4-6.447-14.4-14.4s6.447-14.4 14.4-14.4 14.4 6.447 14.4 14.4c-0.009 7.949-6.451 14.391-14.4 14.4z">
        </path>
        <path
          d="M18.4 23.2h-1.6v-10.4c0-0.442-0.358-0.8-0.8-0.8h-1.6c-0.442 0-0.8 0.358-0.8 0.8s0.358 0.8 0.8 0.8h0.8v9.6h-1.6c-0.442 0-0.8 0.358-0.8 0.8s0.358 0.8 0.8 0.8h4.8c0.442 0 0.8-0.358 0.8-0.8s-0.358-0.8-0.8-0.8z">
        </path>
        <path d="M17.6 8c0 0.884-0.717 1.6-1.6 1.6s-1.6-0.716-1.6-1.6c0-0.884 0.717-1.6 1.6-1.6s1.6 0.716 1.6 1.6z">
        </path>
      </symbol>
    </svg>