<?xml version="1.0" encoding="utf-8"?>
<!-- Generator: Adobe Illustrator 14.0.0, SVG Export Plug-In . SVG Version: 6.00 Build 43363)  -->
<!DOCTYPE svg PUBLIC "-//W3C//DTD SVG 1.1//EN" "http://www.w3.org/Graphics/SVG/1.1/DTD/svg11.dtd">
<svg version="1.1" id="Ebene_1" xmlns="http://www.w3.org/2000/svg" xmlns:xlink="http://www.w3.org/1999/xlink" x="0px" y="0px"
	 width="283.465px" height="181.963px" viewBox="0 0 283.465 181.963" enable-background="new 0 0 283.465 181.963"
	 xml:space="preserve">
<g>
	<path fill="#76B82A" d="M137.411,165.357c-35.198,18.325-78.562,4.627-96.887-30.571c-18.323-35.198-4.67-78.575,30.53-96.898
		L51.323,0C4.594,24.325-13.518,81.9,10.81,128.628c24.322,46.726,81.883,64.916,128.613,40.592L137.411,165.357z"/>
	<path fill="#76B82A" d="M188.814,127.987h-11.596v-18.608h12.057c6.617,0,9.928,3.169,9.928,9.514c0,2.751-0.896,4.955-2.693,6.611
		C194.719,127.157,192.156,127.987,188.814,127.987 M187.271,84.64c3.615,0,6.271,0.661,7.969,1.981
		c1.695,1.322,2.545,3.457,2.545,6.404c0,2.671-0.912,4.743-2.734,6.218c-1.82,1.473-4.387,2.213-7.695,2.213h-10.137V84.64H187.271
		z M199.746,105.041c2.838-1.169,5.012-2.865,6.529-5.093c1.516-2.223,2.273-4.753,2.273-7.589c0-5.536-1.836-9.658-5.508-12.371
		c-3.672-2.71-8.928-4.066-15.77-4.066h-20.859v60.741h4.088h18.314c6.705,0,11.904-1.523,15.605-4.567
		c3.697-3.047,5.547-7.448,5.547-13.203c0-3.312-0.861-6.226-2.588-8.742C205.656,107.632,203.113,105.93,199.746,105.041
		 M133.581,110.546c3.503,1.055,6.167,2.072,7.989,3.047c1.819,0.975,3.079,2.021,3.775,3.148c0.692,1.128,1.044,2.522,1.044,4.195
		c0,2.447-0.935,4.391-2.799,5.841c-1.862,1.444-4.545,2.169-8.049,2.169c-3.95,0-7.113-0.885-9.491-2.651
		c-2.378-1.769-3.568-4.471-3.568-8.114h-10.804c0,4.116,1.132,7.635,3.4,10.555c2.266,2.923,5.229,5.111,8.887,6.571
		c3.655,1.459,7.516,2.188,11.577,2.188c4.366,0,8.184-0.673,11.452-2.021c3.269-1.35,5.791-3.278,7.57-5.779
		c1.779-2.505,2.672-5.45,2.672-8.846c0-3.196-0.725-5.992-2.169-8.385c-1.447-2.391-3.639-4.463-6.573-6.216
		c-2.933-1.752-6.71-3.309-11.325-4.675c-4.42-1.276-7.663-2.668-9.722-4.168c-2.059-1.502-3.086-3.338-3.086-5.508
		c0-2.448,0.912-4.428,2.731-5.944c1.824-1.517,4.485-2.272,7.989-2.272c3.729,0,6.542,0.901,8.45,2.709
		c1.902,1.81,2.858,4.227,2.858,7.259h10.763c0-3.421-0.891-6.544-2.669-9.365c-1.783-2.823-4.332-5.063-7.657-6.718
		c-3.321-1.653-7.195-2.481-11.618-2.481c-4.229,0-7.982,0.717-11.265,2.147c-3.28,1.436-5.834,3.431-7.656,5.986
		c-1.821,2.561-2.733,5.468-2.733,8.722c0,4.645,1.737,8.415,5.214,11.307C122.247,106.14,127.183,108.573,133.581,110.546
		 M96.074,75.921l-15.186,47.266L65.789,75.921H53.941l21.695,60.741h2.5h8.053l21.778-60.741H96.074z"/>
	<path d="M283.465,169.969h-3.797h-5.346v1.276h3.789v10.558h1.557v-10.558h3.797V169.969z M273.256,171.246v-1.276h-5.754h-1.576
		v11.834h1.576v-5.234h4.949v-1.267h-4.949v-4.057H273.256z M257.119,177.428l1.996-5.524l2.008,5.524H257.119z M262.715,181.803
		h1.619l-4.527-11.834h-0.344h-1.039l-4.52,11.834h1.625l1.123-3.099h4.934L262.715,181.803z M250.561,169.969v5.088h-5.953v-5.088
		h-1.576v11.834h1.576v-5.479h5.953v5.479h1.574v-11.834H250.561z M240.91,178.046h-1.576c-0.1,0.591-0.25,1.081-0.455,1.465
		c-0.199,0.384-0.5,0.676-0.9,0.881c-0.395,0.201-0.918,0.305-1.564,0.305c-0.672,0-1.236-0.183-1.689-0.553
		c-0.455-0.369-0.793-0.87-1.018-1.505c-0.221-0.633-0.33-1.351-0.33-2.152v-1.211c0-0.845,0.121-1.582,0.359-2.211
		c0.242-0.628,0.6-1.118,1.078-1.464c0.475-0.345,1.059-0.519,1.746-0.519c0.867,0,1.518,0.226,1.945,0.68
		c0.426,0.453,0.703,1.118,0.828,2.004h1.576c-0.08-0.802-0.297-1.492-0.646-2.089c-0.348-0.59-0.836-1.051-1.459-1.381
		c-0.621-0.327-1.373-0.49-2.244-0.49c-0.965,0-1.807,0.226-2.527,0.677c-0.721,0.453-1.273,1.095-1.662,1.925
		c-0.387,0.83-0.58,1.79-0.58,2.885v1.194c0,1.09,0.191,2.048,0.578,2.876c0.383,0.829,0.926,1.473,1.625,1.922
		c0.697,0.453,1.504,0.679,2.42,0.679c0.92,0,1.705-0.165,2.346-0.499c0.643-0.331,1.137-0.792,1.492-1.382
		C240.604,179.497,240.82,178.818,240.91,178.046 M225.801,176.511c0.752,0.216,1.332,0.427,1.732,0.639
		c0.4,0.206,0.68,0.441,0.84,0.7c0.158,0.255,0.24,0.576,0.24,0.963c0,0.583-0.223,1.044-0.666,1.379
		c-0.447,0.337-1.072,0.505-1.879,0.505c-0.531,0-1.018-0.082-1.451-0.25c-0.434-0.17-0.781-0.427-1.049-0.774
		c-0.264-0.347-0.393-0.78-0.393-1.299h-1.578c0,0.754,0.217,1.398,0.641,1.938c0.43,0.543,0.986,0.956,1.672,1.234
		s1.406,0.417,2.158,0.417c0.826,0,1.553-0.129,2.18-0.389c0.621-0.262,1.102-0.633,1.443-1.109
		c0.338-0.479,0.508-1.036,0.508-1.669c0-0.615-0.139-1.143-0.41-1.59c-0.275-0.446-0.695-0.837-1.262-1.166
		c-0.564-0.331-1.305-0.623-2.213-0.878c-0.658-0.183-1.186-0.38-1.586-0.586c-0.402-0.206-0.699-0.437-0.887-0.69
		c-0.189-0.258-0.285-0.55-0.285-0.886c0-0.573,0.207-1.036,0.619-1.39c0.412-0.353,1.016-0.528,1.813-0.528
		c0.855,0,1.502,0.207,1.941,0.629c0.441,0.423,0.66,0.978,0.66,1.67h1.582c0-0.628-0.164-1.216-0.498-1.761
		c-0.334-0.55-0.816-0.989-1.449-1.32c-0.631-0.331-1.375-0.494-2.236-0.494c-0.793,0-1.49,0.139-2.104,0.417
		c-0.609,0.278-1.082,0.663-1.412,1.149c-0.334,0.49-0.502,1.04-0.502,1.651c0,0.874,0.328,1.582,0.979,2.127
		C223.598,175.696,224.551,176.147,225.801,176.511 M220.688,169.969h-3.793h-5.352v1.276h3.787v10.558h1.564v-10.558h3.793V169.969
		z M204.27,175.739v-4.493h2.342c0.867,0,1.512,0.2,1.934,0.601c0.424,0.403,0.633,0.957,0.633,1.675
		c0,0.415-0.094,0.794-0.287,1.128c-0.191,0.336-0.477,0.603-0.855,0.797c-0.379,0.196-0.842,0.293-1.383,0.293H204.27z
		 M208.506,176.682c0.709-0.278,1.264-0.691,1.66-1.239c0.4-0.549,0.598-1.191,0.598-1.922c0-1.149-0.357-2.03-1.072-2.64
		c-0.717-0.609-1.742-0.912-3.08-0.912h-3.918v11.834h1.576v-4.795h2.758l2.564,4.795h1.691v-0.099L208.506,176.682z
		 M199.85,169.969h-1.576v11.834h1.576V169.969z M194.842,169.969l-1.818,8.102l-0.254,1.587l-0.324-1.423l-2.275-8.266H190h-1.154
		l-2.342,8.266l-0.324,1.391l-0.229-1.544l-1.861-8.112h-1.576l2.861,11.834h0.291h1.146l2.521-8.642l0.184-0.886l0.182,0.886
		l2.43,8.642h0.311h1.129l2.861-11.834H194.842z M170.588,175.739v-4.493h2.344c0.867,0,1.51,0.2,1.934,0.601
		c0.422,0.403,0.633,0.957,0.633,1.675c0,0.415-0.096,0.794-0.285,1.128c-0.195,0.336-0.48,0.603-0.859,0.797
		c-0.379,0.196-0.84,0.293-1.379,0.293H170.588z M174.824,176.682c0.711-0.278,1.262-0.691,1.664-1.239
		c0.396-0.549,0.596-1.191,0.596-1.922c0-1.149-0.357-2.03-1.074-2.64c-0.715-0.609-1.74-0.912-3.078-0.912h-3.918v11.834h1.574
		v-4.795h2.756l2.572,4.795h1.689v-0.099L174.824,176.682z M161.131,180.534v-4.21h5.111v-1.267h-5.111v-3.812h5.857v-1.276h-5.857
		h-1.578v11.834h1.268h6.25v-1.27H161.131z M155.635,176.243c0,0.878-0.142,1.637-0.43,2.28c-0.288,0.643-0.718,1.137-1.284,1.487
		c-0.57,0.351-1.267,0.523-2.09,0.523h-1.627v-9.288h1.766c0.776,0,1.438,0.169,1.985,0.505c0.552,0.333,0.972,0.82,1.253,1.456
		c0.285,0.637,0.427,1.404,0.427,2.306V176.243z M151.97,169.969h-1.766h-1.574v11.834h0.731h2.47c1.09,0,2.038-0.227,2.844-0.675
		c0.809-0.451,1.43-1.095,1.864-1.93c0.439-0.84,0.658-1.823,0.658-2.956v-0.715c0-1.123-0.218-2.103-0.658-2.942
		c-0.435-0.838-1.046-1.483-1.836-1.939C153.917,170.195,153.004,169.969,151.97,169.969"/>
	<path d="M221.857,160.559v-4.208h5.115v-1.27h-5.115v-3.812h5.861v-1.276h-5.861h-1.576v11.835h1.27h6.252v-1.27H221.857z
		 M217.438,149.994h-1.58v11.835h1.58V149.994z M212.992,149.994h-2.035l-3.857,9.671l-3.861-9.671h-0.682h-1.352v11.835h1.568
		v-4.626l-0.146-4.925l3.873,9.551h1.193l3.877-9.561l-0.146,4.935v4.626h1.568V149.994z M193.322,160.559v-4.208h5.113v-1.27
		h-5.113v-3.812h5.859v-1.276h-5.859h-1.574v11.835h1.266h6.25v-1.27H193.322z M187.828,156.266c0,0.881-0.145,1.64-0.432,2.285
		c-0.283,0.639-0.715,1.133-1.281,1.483c-0.572,0.35-1.268,0.524-2.09,0.524h-1.627v-9.289h1.766c0.773,0,1.438,0.168,1.984,0.504
		c0.551,0.336,0.969,0.82,1.252,1.459c0.285,0.636,0.428,1.407,0.428,2.304V156.266z M184.164,149.994h-1.766h-1.574v11.835h0.73
		h2.471c1.088,0,2.037-0.225,2.844-0.677c0.809-0.451,1.43-1.089,1.865-1.929c0.438-0.838,0.654-1.824,0.654-2.957v-0.71
		c0-1.123-0.217-2.107-0.654-2.947c-0.436-0.835-1.049-1.485-1.836-1.938C186.109,150.219,185.199,149.994,184.164,149.994
		 M172.012,157.454l2-5.523l2.008,5.523H172.012z M177.615,161.829h1.613l-4.527-11.835h-0.34h-1.039l-4.52,11.835h1.627
		l1.119-3.096h4.936L177.615,161.829z M166.695,161.829h1.889l-5.016-6.615l4.658-5.22h-1.902l-5.244,5.836v-5.836h-1.576v11.835
		h1.576v-4.017l1.447-1.498L166.695,161.829z M150.696,157.454l1.997-5.523l2.009,5.523H150.696z M156.295,161.829h1.615
		l-4.526-11.835h-0.341h-1.04l-4.521,11.835h1.625l1.123-3.096h4.937L156.295,161.829z"/>
</g>
</svg>
